<svg width="1526px" height="109px" viewBox="0 0 1526px 109px" xmlns="http://www.w3.org/2000/svg" xmlns:xlink="http://www.w3.org/1999/xlink" xml:space="preserve" version="1.1"  baseProfile="full">
<line x1="1" y1="1" x2="1525" y2="1" style="stroke:#ddd;stroke-width:2" />
<line x1="1" y1="1" x2="1" y2="108" style="stroke:#ddd;stroke-width:2" />
<line x1="1" y1="108" x2="1525" y2="108" style="stroke:#ddd;stroke-width:2" />
<line x1="1525" y1="1" x2="1525" y2="108" style="stroke:#ddd;stroke-width:2" />
<line x1="109" y1="1" x2="109" y2="108" style="stroke:#ddd;stroke-width:2" />
<line x1="218" y1="1" x2="218" y2="108" style="stroke:#ddd;stroke-width:2" />
<line x1="327" y1="1" x2="327" y2="108" style="stroke:#ddd;stroke-width:2" />
<line x1="436" y1="1" x2="436" y2="108" style="stroke:#ddd;stroke-width:2" />
<line x1="545" y1="1" x2="545" y2="108" style="stroke:#ddd;stroke-width:2" />
<line x1="654" y1="1" x2="654" y2="108" style="stroke:#ddd;stroke-width:2" />
<line x1="763" y1="1" x2="763" y2="108" style="stroke:#ddd;stroke-width:2" />
<line x1="872" y1="1" x2="872" y2="108" style="stroke:#ddd;stroke-width:2" />
<line x1="981" y1="1" x2="981" y2="108" style="stroke:#ddd;stroke-width:2" />
<line x1="1090" y1="1" x2="1090" y2="108" style="stroke:#ddd;stroke-width:2" />
<line x1="1199" y1="1" x2="1199" y2="108" style="stroke:#ddd;stroke-width:2" />
<line x1="1308" y1="1" x2="1308" y2="108" style="stroke:#ddd;stroke-width:2" />
<line x1="1417" y1="1" x2="1417" y2="108" style="stroke:#ddd;stroke-width:2" />
<line x1="1" y1="54" x2="1525" y2="54" style="stroke:#ddd;stroke-width:2;stroke-dasharray:3 3" />
<line x1="55" y1="1" x2="55" y2="108" style="stroke:#ddd;stroke-width:2;stroke-dasharray:3 3" />
<line x1="164" y1="1" x2="164" y2="108" style="stroke:#ddd;stroke-width:2;stroke-dasharray:3 3" />
<line x1="273" y1="1" x2="273" y2="108" style="stroke:#ddd;stroke-width:2;stroke-dasharray:3 3" />
<line x1="382" y1="1" x2="382" y2="108" style="stroke:#ddd;stroke-width:2;stroke-dasharray:3 3" />
<line x1="491" y1="1" x2="491" y2="108" style="stroke:#ddd;stroke-width:2;stroke-dasharray:3 3" />
<line x1="600" y1="1" x2="600" y2="108" style="stroke:#ddd;stroke-width:2;stroke-dasharray:3 3" />
<line x1="709" y1="1" x2="709" y2="108" style="stroke:#ddd;stroke-width:2;stroke-dasharray:3 3" />
<line x1="818" y1="1" x2="818" y2="108" style="stroke:#ddd;stroke-width:2;stroke-dasharray:3 3" />
<line x1="927" y1="1" x2="927" y2="108" style="stroke:#ddd;stroke-width:2;stroke-dasharray:3 3" />
<line x1="1036" y1="1" x2="1036" y2="108" style="stroke:#ddd;stroke-width:2;stroke-dasharray:3 3" />
<line x1="1145" y1="1" x2="1145" y2="108" style="stroke:#ddd;stroke-width:2;stroke-dasharray:3 3" />
<line x1="1254" y1="1" x2="1254" y2="108" style="stroke:#ddd;stroke-width:2;stroke-dasharray:3 3" />
<line x1="1363" y1="1" x2="1363" y2="108" style="stroke:#ddd;stroke-width:2;stroke-dasharray:3 3" />
<line x1="1472" y1="1" x2="1472" y2="108" style="stroke:#ddd;stroke-width:2;stroke-dasharray:3 3" />
<path d="M13.17,17.17 c 1.08,0.33 2.39,0.38 3.6,0.19 5.26,-0.81 10.21,-2.13 12.65,-2.94 3,-1 4.53,1.14 3.42,3.58 -1.58,3.5 -6.5,13.17 -8.83,16.5" style="fill:none;stroke:black;stroke-width:3" />
<circle cx="13.17" cy="17.17" r="5" stroke-width="0" fill="#FF2A00" opacity="0.7" />
<path d="M122.17,17.17 c 1.08,0.33 2.39,0.38 3.6,0.19 5.26,-0.81 10.21,-2.13 12.65,-2.94 3,-1 4.53,1.14 3.42,3.58 -1.58,3.5 -6.5,13.17 -8.83,16.5" style="fill:none;stroke:#999;stroke-width:3" />
<path d="M133.0,34.5 c 11.75,10.5 9,32.75 -1.83,24" style="fill:none;stroke:black;stroke-width:3" />
<circle cx="133.0" cy="34.5" r="5" stroke-width="0" fill="#FF2A00" opacity="0.7" />
<path d="M231.17000000000002,17.17 c 1.08,0.33 2.39,0.38 3.6,0.19 5.26,-0.81 10.21,-2.13 12.65,-2.94 3,-1 4.53,1.14 3.42,3.58 -1.58,3.5 -6.5,13.17 -8.83,16.5" style="fill:none;stroke:#999;stroke-width:3" />
<path d="M242.0,34.5 c 11.75,10.5 9,32.75 -1.83,24" style="fill:none;stroke:#999;stroke-width:3" />
<path d="M232.12,17.75 c 0.75,0.75 1.21,1.75 1.21,3 0,0.87 -0.12,48.62 -0.12,67.25 0,3.26 -0.06,5.57 -0.1,6.5" style="fill:none;stroke:black;stroke-width:3" />
<circle cx="232.12" cy="17.75" r="5" stroke-width="0" fill="#FF2A00" opacity="0.7" />
<path d="M340.17,17.17 c 1.08,0.33 2.39,0.38 3.6,0.19 5.26,-0.81 10.21,-2.13 12.65,-2.94 3,-1 4.53,1.14 3.42,3.58 -1.58,3.5 -6.5,13.17 -8.83,16.5" style="fill:none;stroke:#999;stroke-width:3" />
<path d="M351.0,34.5 c 11.75,10.5 9,32.75 -1.83,24" style="fill:none;stroke:#999;stroke-width:3" />
<path d="M341.12,17.75 c 0.75,0.75 1.21,1.75 1.21,3 0,0.87 -0.12,48.62 -0.12,67.25 0,3.26 -0.06,5.57 -0.1,6.5" style="fill:none;stroke:#999;stroke-width:3" />
<path d="M373.15,13.25 c 0.47,1.25 0.21,2.75 -0.36,4 -2.52,5.5 -7.79,12.12 -10.54,15" style="fill:none;stroke:black;stroke-width:3" />
<circle cx="373.15" cy="13.25" r="5" stroke-width="0" fill="#FF2A00" opacity="0.7" />
<path d="M449.17,17.17 c 1.08,0.33 2.39,0.38 3.6,0.19 5.26,-0.81 10.21,-2.13 12.65,-2.94 3,-1 4.53,1.14 3.42,3.58 -1.58,3.5 -6.5,13.17 -8.83,16.5" style="fill:none;stroke:#999;stroke-width:3" />
<path d="M460.0,34.5 c 11.75,10.5 9,32.75 -1.83,24" style="fill:none;stroke:#999;stroke-width:3" />
<path d="M450.12,17.75 c 0.75,0.75 1.21,1.75 1.21,3 0,0.87 -0.12,48.62 -0.12,67.25 0,3.26 -0.06,5.57 -0.1,6.5" style="fill:none;stroke:#999;stroke-width:3" />
<path d="M482.15,13.25 c 0.47,1.25 0.21,2.75 -0.36,4 -2.52,5.5 -7.79,12.12 -10.54,15" style="fill:none;stroke:#999;stroke-width:3" />
<path d="M485.26,16.1 c 2.75,-0.35 8.05,-1.71 10.04,-2.1 2.52,-0.5 3.71,1.09 2.97,3.5 -3.52,11.38 -13.02,25.25 -24.05,32.75" style="fill:none;stroke:black;stroke-width:3" />
<circle cx="485.26" cy="16.1" r="5" stroke-width="0" fill="#FF2A00" opacity="0.7" />
<path d="M558.1700000000001,17.17 c 1.08,0.33 2.39,0.38 3.6,0.19 5.26,-0.81 10.21,-2.13 12.65,-2.94 3,-1 4.53,1.14 3.42,3.58 -1.58,3.5 -6.5,13.17 -8.83,16.5" style="fill:none;stroke:#999;stroke-width:3" />
<path d="M569.0,34.5 c 11.75,10.5 9,32.75 -1.83,24" style="fill:none;stroke:#999;stroke-width:3" />
<path d="M559.12,17.75 c 0.75,0.75 1.21,1.75 1.21,3 0,0.87 -0.12,48.62 -0.12,67.25 0,3.26 -0.06,5.57 -0.1,6.5" style="fill:none;stroke:#999;stroke-width:3" />
<path d="M591.15,13.25 c 0.47,1.25 0.21,2.75 -0.36,4 -2.52,5.5 -7.79,12.12 -10.54,15" style="fill:none;stroke:#999;stroke-width:3" />
<path d="M594.26,16.1 c 2.75,-0.35 8.05,-1.71 10.04,-2.1 2.52,-0.5 3.71,1.09 2.97,3.5 -3.52,11.38 -13.02,25.25 -24.05,32.75" style="fill:none;stroke:#999;stroke-width:3" />
<path d="M591.38,23.88 c 1,0.43 4.99,3.03 6.99,5.62" style="fill:none;stroke:black;stroke-width:3" />
<circle cx="591.38" cy="23.88" r="5" stroke-width="0" fill="#FF2A00" opacity="0.7" />
<path d="M667.1700000000001,17.17 c 1.08,0.33 2.39,0.38 3.6,0.19 5.26,-0.81 10.21,-2.13 12.65,-2.94 3,-1 4.53,1.14 3.42,3.58 -1.58,3.5 -6.5,13.17 -8.83,16.5" style="fill:none;stroke:#999;stroke-width:3" />
<path d="M678.0,34.5 c 11.75,10.5 9,32.75 -1.83,24" style="fill:none;stroke:#999;stroke-width:3" />
<path d="M668.12,17.75 c 0.75,0.75 1.21,1.75 1.21,3 0,0.87 -0.12,48.62 -0.12,67.25 0,3.26 -0.06,5.57 -0.1,6.5" style="fill:none;stroke:#999;stroke-width:3" />
<path d="M700.15,13.25 c 0.47,1.25 0.21,2.75 -0.36,4 -2.52,5.5 -7.79,12.12 -10.54,15" style="fill:none;stroke:#999;stroke-width:3" />
<path d="M703.26,16.1 c 2.75,-0.35 8.05,-1.71 10.04,-2.1 2.52,-0.5 3.71,1.09 2.97,3.5 -3.52,11.38 -13.02,25.25 -24.05,32.75" style="fill:none;stroke:#999;stroke-width:3" />
<path d="M700.38,23.88 c 1,0.43 4.99,3.03 6.99,5.62" style="fill:none;stroke:#999;stroke-width:3" />
<path d="M693.25,32.12 c 1.46,0.95 5.85,4.99 7.07,7.12" style="fill:none;stroke:black;stroke-width:3" />
<circle cx="693.25" cy="32.12" r="5" stroke-width="0" fill="#FF2A00" opacity="0.7" />
<path d="M776.1700000000001,17.17 c 1.08,0.33 2.39,0.38 3.6,0.19 5.26,-0.81 10.21,-2.13 12.65,-2.94 3,-1 4.53,1.14 3.42,3.58 -1.58,3.5 -6.5,13.17 -8.83,16.5" style="fill:none;stroke:#999;stroke-width:3" />
<path d="M787.0,34.5 c 11.75,10.5 9,32.75 -1.83,24" style="fill:none;stroke:#999;stroke-width:3" />
<path d="M777.12,17.75 c 0.75,0.75 1.21,1.75 1.21,3 0,0.87 -0.12,48.62 -0.12,67.25 0,3.26 -0.06,5.57 -0.1,6.5" style="fill:none;stroke:#999;stroke-width:3" />
<path d="M809.15,13.25 c 0.47,1.25 0.21,2.75 -0.36,4 -2.52,5.5 -7.79,12.12 -10.54,15" style="fill:none;stroke:#999;stroke-width:3" />
<path d="M812.26,16.1 c 2.75,-0.35 8.05,-1.71 10.04,-2.1 2.52,-0.5 3.71,1.09 2.97,3.5 -3.52,11.38 -13.02,25.25 -24.05,32.75" style="fill:none;stroke:#999;stroke-width:3" />
<path d="M809.38,23.88 c 1,0.43 4.99,3.03 6.99,5.62" style="fill:none;stroke:#999;stroke-width:3" />
<path d="M802.25,32.12 c 1.46,0.95 5.85,4.99 7.07,7.12" style="fill:none;stroke:#999;stroke-width:3" />
<path d="M833.59,17 c 1.41,0.38 2.79,0.27 4.02,0 2.88,-0.62 8.000654,-1.102904 11.130654,-1.722904 3.05,-0.61 5.21,1.05 3.75,3.75 -3.25,6 -9.102249,13.490798 -14.86773,18.35225" style="fill:none;stroke:black;stroke-width:3" />
<circle cx="833.59" cy="17.0" r="5" stroke-width="0" fill="#FF2A00" opacity="0.7" />
<path d="M885.1700000000001,17.17 c 1.08,0.33 2.39,0.38 3.6,0.19 5.26,-0.81 10.21,-2.13 12.65,-2.94 3,-1 4.53,1.14 3.42,3.58 -1.58,3.5 -6.5,13.17 -8.83,16.5" style="fill:none;stroke:#999;stroke-width:3" />
<path d="M896.0,34.5 c 11.75,10.5 9,32.75 -1.83,24" style="fill:none;stroke:#999;stroke-width:3" />
<path d="M886.12,17.75 c 0.75,0.75 1.21,1.75 1.21,3 0,0.87 -0.12,48.62 -0.12,67.25 0,3.26 -0.06,5.57 -0.1,6.5" style="fill:none;stroke:#999;stroke-width:3" />
<path d="M918.15,13.25 c 0.47,1.25 0.21,2.75 -0.36,4 -2.52,5.5 -7.79,12.12 -10.54,15" style="fill:none;stroke:#999;stroke-width:3" />
<path d="M921.26,16.1 c 2.75,-0.35 8.05,-1.71 10.04,-2.1 2.52,-0.5 3.71,1.09 2.97,3.5 -3.52,11.38 -13.02,25.25 -24.05,32.75" style="fill:none;stroke:#999;stroke-width:3" />
<path d="M918.38,23.88 c 1,0.43 4.99,3.03 6.99,5.62" style="fill:none;stroke:#999;stroke-width:3" />
<path d="M911.25,32.12 c 1.46,0.95 5.85,4.99 7.07,7.12" style="fill:none;stroke:#999;stroke-width:3" />
<path d="M942.59,17 c 1.41,0.38 2.79,0.27 4.02,0 2.88,-0.62 8.000654,-1.102904 11.130654,-1.722904 3.05,-0.61 5.21,1.05 3.75,3.75 -3.25,6 -9.102249,13.490798 -14.86773,18.35225" style="fill:none;stroke:#999;stroke-width:3" />
<path d="M936.25,25.5 c 2.92,-0.26 20.17,17.28 21.93,18.83 1.75,1.55 5.07,3.92 8.07,5.42" style="fill:none;stroke:black;stroke-width:3" />
<circle cx="936.25" cy="25.5" r="5" stroke-width="0" fill="#FF2A00" opacity="0.7" />
<path d="M994.1700000000001,17.17 c 1.08,0.33 2.39,0.38 3.6,0.19 5.26,-0.81 10.21,-2.13 12.65,-2.94 3,-1 4.53,1.14 3.42,3.58 -1.58,3.5 -6.5,13.17 -8.83,16.5" style="fill:none;stroke:#999;stroke-width:3" />
<path d="M1005.0,34.5 c 11.75,10.5 9,32.75 -1.83,24" style="fill:none;stroke:#999;stroke-width:3" />
<path d="M995.12,17.75 c 0.75,0.75 1.21,1.75 1.21,3 0,0.87 -0.12,48.62 -0.12,67.25 0,3.26 -0.06,5.57 -0.1,6.5" style="fill:none;stroke:#999;stroke-width:3" />
<path d="M1027.15,13.25 c 0.47,1.25 0.21,2.75 -0.36,4 -2.52,5.5 -7.79,12.12 -10.54,15" style="fill:none;stroke:#999;stroke-width:3" />
<path d="M1030.26,16.1 c 2.75,-0.35 8.05,-1.71 10.04,-2.1 2.52,-0.5 3.71,1.09 2.97,3.5 -3.52,11.38 -13.02,25.25 -24.05,32.75" style="fill:none;stroke:#999;stroke-width:3" />
<path d="M1027.38,23.88 c 1,0.43 4.99,3.03 6.99,5.62" style="fill:none;stroke:#999;stroke-width:3" />
<path d="M1020.25,32.12 c 1.46,0.95 5.85,4.99 7.07,7.12" style="fill:none;stroke:#999;stroke-width:3" />
<path d="M1051.5900000000001,17 c 1.41,0.38 2.79,0.27 4.02,0 2.88,-0.62 8.000654,-1.102904 11.130654,-1.722904 3.05,-0.61 5.21,1.05 3.75,3.75 -3.25,6 -9.102249,13.490798 -14.86773,18.35225" style="fill:none;stroke:#999;stroke-width:3" />
<path d="M1045.25,25.5 c 2.92,-0.26 20.17,17.28 21.93,18.83 1.75,1.55 5.07,3.92 8.07,5.42" style="fill:none;stroke:#999;stroke-width:3" />
<path d="M1031.26,49.623701 c 1.16,0.44 2.94,0.5 4.12,0.47 5.11,-0.1 11.84,-1.18 16.38,-1.47 1.35,-0.09 2.65,-0.17 3.97,0.13" style="fill:none;stroke:black;stroke-width:3" />
<circle cx="1031.26" cy="49.623701" r="5" stroke-width="0" fill="#FF2A00" opacity="0.7" />
<path d="M1103.17,17.17 c 1.08,0.33 2.39,0.38 3.6,0.19 5.26,-0.81 10.21,-2.13 12.65,-2.94 3,-1 4.53,1.14 3.42,3.58 -1.58,3.5 -6.5,13.17 -8.83,16.5" style="fill:none;stroke:#999;stroke-width:3" />
<path d="M1114.0,34.5 c 11.75,10.5 9,32.75 -1.83,24" style="fill:none;stroke:#999;stroke-width:3" />
<path d="M1104.12,17.75 c 0.75,0.75 1.21,1.75 1.21,3 0,0.87 -0.12,48.62 -0.12,67.25 0,3.26 -0.06,5.57 -0.1,6.5" style="fill:none;stroke:#999;stroke-width:3" />
<path d="M1136.15,13.25 c 0.47,1.25 0.21,2.75 -0.36,4 -2.52,5.5 -7.79,12.12 -10.54,15" style="fill:none;stroke:#999;stroke-width:3" />
<path d="M1139.26,16.1 c 2.75,-0.35 8.05,-1.71 10.04,-2.1 2.52,-0.5 3.71,1.09 2.97,3.5 -3.52,11.38 -13.02,25.25 -24.05,32.75" style="fill:none;stroke:#999;stroke-width:3" />
<path d="M1136.38,23.88 c 1,0.43 4.99,3.03 6.99,5.62" style="fill:none;stroke:#999;stroke-width:3" />
<path d="M1129.25,32.12 c 1.46,0.95 5.85,4.99 7.07,7.12" style="fill:none;stroke:#999;stroke-width:3" />
<path d="M1160.5900000000001,17 c 1.41,0.38 2.79,0.27 4.02,0 2.88,-0.62 8.000654,-1.102904 11.130654,-1.722904 3.05,-0.61 5.21,1.05 3.75,3.75 -3.25,6 -9.102249,13.490798 -14.86773,18.35225" style="fill:none;stroke:#999;stroke-width:3" />
<path d="M1154.25,25.5 c 2.92,-0.26 20.17,17.28 21.93,18.83 1.75,1.55 5.07,3.92 8.07,5.42" style="fill:none;stroke:#999;stroke-width:3" />
<path d="M1140.26,49.623701 c 1.16,0.44 2.94,0.5 4.12,0.47 5.11,-0.1 11.84,-1.18 16.38,-1.47 1.35,-0.09 2.65,-0.17 3.97,0.13" style="fill:none;stroke:#999;stroke-width:3" />
<path d="M1129.71,63.453701 c 3.16,0.51 5.45,0.07 7.79,-0.13 8.63,-0.75 21.85,-2.13 30.07,-2.63 2.37,-0.14 4.93,-0.23 7.41,0.23" style="fill:none;stroke:black;stroke-width:3" />
<circle cx="1129.71" cy="63.453701" r="5" stroke-width="0" fill="#FF2A00" opacity="0.7" />
<path d="M1212.17,17.17 c 1.08,0.33 2.39,0.38 3.6,0.19 5.26,-0.81 10.21,-2.13 12.65,-2.94 3,-1 4.53,1.14 3.42,3.58 -1.58,3.5 -6.5,13.17 -8.83,16.5" style="fill:none;stroke:#999;stroke-width:3" />
<path d="M1223.0,34.5 c 11.75,10.5 9,32.75 -1.83,24" style="fill:none;stroke:#999;stroke-width:3" />
<path d="M1213.12,17.75 c 0.75,0.75 1.21,1.75 1.21,3 0,0.87 -0.12,48.62 -0.12,67.25 0,3.26 -0.06,5.57 -0.1,6.5" style="fill:none;stroke:#999;stroke-width:3" />
<path d="M1245.15,13.25 c 0.47,1.25 0.21,2.75 -0.36,4 -2.52,5.5 -7.79,12.12 -10.54,15" style="fill:none;stroke:#999;stroke-width:3" />
<path d="M1248.26,16.1 c 2.75,-0.35 8.05,-1.71 10.04,-2.1 2.52,-0.5 3.71,1.09 2.97,3.5 -3.52,11.38 -13.02,25.25 -24.05,32.75" style="fill:none;stroke:#999;stroke-width:3" />
<path d="M1245.38,23.88 c 1,0.43 4.99,3.03 6.99,5.62" style="fill:none;stroke:#999;stroke-width:3" />
<path d="M1238.25,32.12 c 1.46,0.95 5.85,4.99 7.07,7.12" style="fill:none;stroke:#999;stroke-width:3" />
<path d="M1269.5900000000001,17 c 1.41,0.38 2.79,0.27 4.02,0 2.88,-0.62 8.000654,-1.102904 11.130654,-1.722904 3.05,-0.61 5.21,1.05 3.75,3.75 -3.25,6 -9.102249,13.490798 -14.86773,18.35225" style="fill:none;stroke:#999;stroke-width:3" />
<path d="M1263.25,25.5 c 2.92,-0.26 20.17,17.28 21.93,18.83 1.75,1.55 5.07,3.92 8.07,5.42" style="fill:none;stroke:#999;stroke-width:3" />
<path d="M1249.26,49.623701 c 1.16,0.44 2.94,0.5 4.12,0.47 5.11,-0.1 11.84,-1.18 16.38,-1.47 1.35,-0.09 2.65,-0.17 3.97,0.13" style="fill:none;stroke:#999;stroke-width:3" />
<path d="M1238.71,63.453701 c 3.16,0.51 5.45,0.07 7.79,-0.13 8.63,-0.75 21.85,-2.13 30.07,-2.63 2.37,-0.14 4.93,-0.23 7.41,0.23" style="fill:none;stroke:#999;stroke-width:3" />
<path d="M1261.16,64.453701 c 0.74,0.74 1.09,2.14 1.09,3.73 0,12.49 0.08,18.301779 0.08,22.551779 0,9.15 -6.05,1.04 -7.05,-0.04" style="fill:none;stroke:black;stroke-width:3" />
<circle cx="1261.16" cy="64.453701" r="5" stroke-width="0" fill="#FF2A00" opacity="0.7" />
<path d="M1321.17,17.17 c 1.08,0.33 2.39,0.38 3.6,0.19 5.26,-0.81 10.21,-2.13 12.65,-2.94 3,-1 4.53,1.14 3.42,3.58 -1.58,3.5 -6.5,13.17 -8.83,16.5" style="fill:none;stroke:#999;stroke-width:3" />
<path d="M1332.0,34.5 c 11.75,10.5 9,32.75 -1.83,24" style="fill:none;stroke:#999;stroke-width:3" />
<path d="M1322.12,17.75 c 0.75,0.75 1.21,1.75 1.21,3 0,0.87 -0.12,48.62 -0.12,67.25 0,3.26 -0.06,5.57 -0.1,6.5" style="fill:none;stroke:#999;stroke-width:3" />
<path d="M1354.15,13.25 c 0.47,1.25 0.21,2.75 -0.36,4 -2.52,5.5 -7.79,12.12 -10.54,15" style="fill:none;stroke:#999;stroke-width:3" />
<path d="M1357.26,16.1 c 2.75,-0.35 8.05,-1.71 10.04,-2.1 2.52,-0.5 3.71,1.09 2.97,3.5 -3.52,11.38 -13.02,25.25 -24.05,32.75" style="fill:none;stroke:#999;stroke-width:3" />
<path d="M1354.38,23.88 c 1,0.43 4.99,3.03 6.99,5.62" style="fill:none;stroke:#999;stroke-width:3" />
<path d="M1347.25,32.12 c 1.46,0.95 5.85,4.99 7.07,7.12" style="fill:none;stroke:#999;stroke-width:3" />
<path d="M1378.5900000000001,17 c 1.41,0.38 2.79,0.27 4.02,0 2.88,-0.62 8.000654,-1.102904 11.130654,-1.722904 3.05,-0.61 5.21,1.05 3.75,3.75 -3.25,6 -9.102249,13.490798 -14.86773,18.35225" style="fill:none;stroke:#999;stroke-width:3" />
<path d="M1372.25,25.5 c 2.92,-0.26 20.17,17.28 21.93,18.83 1.75,1.55 5.07,3.92 8.07,5.42" style="fill:none;stroke:#999;stroke-width:3" />
<path d="M1358.26,49.623701 c 1.16,0.44 2.94,0.5 4.12,0.47 5.11,-0.1 11.84,-1.18 16.38,-1.47 1.35,-0.09 2.65,-0.17 3.97,0.13" style="fill:none;stroke:#999;stroke-width:3" />
<path d="M1347.71,63.453701 c 3.16,0.51 5.45,0.07 7.79,-0.13 8.63,-0.75 21.85,-2.13 30.07,-2.63 2.37,-0.14 4.93,-0.23 7.41,0.23" style="fill:none;stroke:#999;stroke-width:3" />
<path d="M1370.16,64.453701 c 0.74,0.74 1.09,2.14 1.09,3.73 0,12.49 0.08,18.301779 0.08,22.551779 0,9.15 -6.05,1.04 -7.05,-0.04" style="fill:none;stroke:#999;stroke-width:3" />
<path d="M1353.0,72.833701 c 0.04,0.42 0.08,1.09 -0.07,1.69 -0.89,3.56 -8.211616,11.300164 -15.191616,16.090164" style="fill:none;stroke:black;stroke-width:3" />
<circle cx="1353.0" cy="72.833701" r="5" stroke-width="0" fill="#FF2A00" opacity="0.7" />
<path d="M1430.17,17.17 c 1.08,0.33 2.39,0.38 3.6,0.19 5.26,-0.81 10.21,-2.13 12.65,-2.94 3,-1 4.53,1.14 3.42,3.58 -1.58,3.5 -6.5,13.17 -8.83,16.5" style="fill:none;stroke:#999;stroke-width:3" />
<path d="M1441.0,34.5 c 11.75,10.5 9,32.75 -1.83,24" style="fill:none;stroke:#999;stroke-width:3" />
<path d="M1431.12,17.75 c 0.75,0.75 1.21,1.75 1.21,3 0,0.87 -0.12,48.62 -0.12,67.25 0,3.26 -0.06,5.57 -0.1,6.5" style="fill:none;stroke:#999;stroke-width:3" />
<path d="M1463.15,13.25 c 0.47,1.25 0.21,2.75 -0.36,4 -2.52,5.5 -7.79,12.12 -10.54,15" style="fill:none;stroke:#999;stroke-width:3" />
<path d="M1466.26,16.1 c 2.75,-0.35 8.05,-1.71 10.04,-2.1 2.52,-0.5 3.71,1.09 2.97,3.5 -3.52,11.38 -13.02,25.25 -24.05,32.75" style="fill:none;stroke:#999;stroke-width:3" />
<path d="M1463.38,23.88 c 1,0.43 4.99,3.03 6.99,5.62" style="fill:none;stroke:#999;stroke-width:3" />
<path d="M1456.25,32.12 c 1.46,0.95 5.85,4.99 7.07,7.12" style="fill:none;stroke:#999;stroke-width:3" />
<path d="M1487.5900000000001,17 c 1.41,0.38 2.79,0.27 4.02,0 2.88,-0.62 8.000654,-1.102904 11.130654,-1.722904 3.05,-0.61 5.21,1.05 3.75,3.75 -3.25,6 -9.102249,13.490798 -14.86773,18.35225" style="fill:none;stroke:#999;stroke-width:3" />
<path d="M1481.25,25.5 c 2.92,-0.26 20.17,17.28 21.93,18.83 1.75,1.55 5.07,3.92 8.07,5.42" style="fill:none;stroke:#999;stroke-width:3" />
<path d="M1467.26,49.623701 c 1.16,0.44 2.94,0.5 4.12,0.47 5.11,-0.1 11.84,-1.18 16.38,-1.47 1.35,-0.09 2.65,-0.17 3.97,0.13" style="fill:none;stroke:#999;stroke-width:3" />
<path d="M1456.71,63.453701 c 3.16,0.51 5.45,0.07 7.79,-0.13 8.63,-0.75 21.85,-2.13 30.07,-2.63 2.37,-0.14 4.93,-0.23 7.41,0.23" style="fill:none;stroke:#999;stroke-width:3" />
<path d="M1479.16,64.453701 c 0.74,0.74 1.09,2.14 1.09,3.73 0,12.49 0.08,18.301779 0.08,22.551779 0,9.15 -6.05,1.04 -7.05,-0.04" style="fill:none;stroke:#999;stroke-width:3" />
<path d="M1462.0,72.833701 c 0.04,0.42 0.08,1.09 -0.07,1.69 -0.89,3.56 -8.211616,11.300164 -15.191616,16.090164" style="fill:none;stroke:#999;stroke-width:3" />
<path d="M1494.38,72.963701 c 5.25,3.5 12.114519,11.014683 14.634519,16.444683" style="fill:none;stroke:black;stroke-width:3" />
<circle cx="1494.38" cy="72.963701" r="5" stroke-width="0" fill="#FF2A00" opacity="0.7" />
</svg>