<svg width="2071px" height="109px" viewBox="0 0 2071px 109px" xmlns="http://www.w3.org/2000/svg" xmlns:xlink="http://www.w3.org/1999/xlink" xml:space="preserve" version="1.1"  baseProfile="full">
<line x1="1" y1="1" x2="2070" y2="1" style="stroke:#ddd;stroke-width:2" />
<line x1="1" y1="1" x2="1" y2="108" style="stroke:#ddd;stroke-width:2" />
<line x1="1" y1="108" x2="2070" y2="108" style="stroke:#ddd;stroke-width:2" />
<line x1="2070" y1="1" x2="2070" y2="108" style="stroke:#ddd;stroke-width:2" />
<line x1="109" y1="1" x2="109" y2="108" style="stroke:#ddd;stroke-width:2" />
<line x1="218" y1="1" x2="218" y2="108" style="stroke:#ddd;stroke-width:2" />
<line x1="327" y1="1" x2="327" y2="108" style="stroke:#ddd;stroke-width:2" />
<line x1="436" y1="1" x2="436" y2="108" style="stroke:#ddd;stroke-width:2" />
<line x1="545" y1="1" x2="545" y2="108" style="stroke:#ddd;stroke-width:2" />
<line x1="654" y1="1" x2="654" y2="108" style="stroke:#ddd;stroke-width:2" />
<line x1="763" y1="1" x2="763" y2="108" style="stroke:#ddd;stroke-width:2" />
<line x1="872" y1="1" x2="872" y2="108" style="stroke:#ddd;stroke-width:2" />
<line x1="981" y1="1" x2="981" y2="108" style="stroke:#ddd;stroke-width:2" />
<line x1="1090" y1="1" x2="1090" y2="108" style="stroke:#ddd;stroke-width:2" />
<line x1="1199" y1="1" x2="1199" y2="108" style="stroke:#ddd;stroke-width:2" />
<line x1="1308" y1="1" x2="1308" y2="108" style="stroke:#ddd;stroke-width:2" />
<line x1="1417" y1="1" x2="1417" y2="108" style="stroke:#ddd;stroke-width:2" />
<line x1="1526" y1="1" x2="1526" y2="108" style="stroke:#ddd;stroke-width:2" />
<line x1="1635" y1="1" x2="1635" y2="108" style="stroke:#ddd;stroke-width:2" />
<line x1="1744" y1="1" x2="1744" y2="108" style="stroke:#ddd;stroke-width:2" />
<line x1="1853" y1="1" x2="1853" y2="108" style="stroke:#ddd;stroke-width:2" />
<line x1="1962" y1="1" x2="1962" y2="108" style="stroke:#ddd;stroke-width:2" />
<line x1="1" y1="54" x2="2070" y2="54" style="stroke:#ddd;stroke-width:2;stroke-dasharray:3 3" />
<line x1="55" y1="1" x2="55" y2="108" style="stroke:#ddd;stroke-width:2;stroke-dasharray:3 3" />
<line x1="164" y1="1" x2="164" y2="108" style="stroke:#ddd;stroke-width:2;stroke-dasharray:3 3" />
<line x1="273" y1="1" x2="273" y2="108" style="stroke:#ddd;stroke-width:2;stroke-dasharray:3 3" />
<line x1="382" y1="1" x2="382" y2="108" style="stroke:#ddd;stroke-width:2;stroke-dasharray:3 3" />
<line x1="491" y1="1" x2="491" y2="108" style="stroke:#ddd;stroke-width:2;stroke-dasharray:3 3" />
<line x1="600" y1="1" x2="600" y2="108" style="stroke:#ddd;stroke-width:2;stroke-dasharray:3 3" />
<line x1="709" y1="1" x2="709" y2="108" style="stroke:#ddd;stroke-width:2;stroke-dasharray:3 3" />
<line x1="818" y1="1" x2="818" y2="108" style="stroke:#ddd;stroke-width:2;stroke-dasharray:3 3" />
<line x1="927" y1="1" x2="927" y2="108" style="stroke:#ddd;stroke-width:2;stroke-dasharray:3 3" />
<line x1="1036" y1="1" x2="1036" y2="108" style="stroke:#ddd;stroke-width:2;stroke-dasharray:3 3" />
<line x1="1145" y1="1" x2="1145" y2="108" style="stroke:#ddd;stroke-width:2;stroke-dasharray:3 3" />
<line x1="1254" y1="1" x2="1254" y2="108" style="stroke:#ddd;stroke-width:2;stroke-dasharray:3 3" />
<line x1="1363" y1="1" x2="1363" y2="108" style="stroke:#ddd;stroke-width:2;stroke-dasharray:3 3" />
<line x1="1472" y1="1" x2="1472" y2="108" style="stroke:#ddd;stroke-width:2;stroke-dasharray:3 3" />
<line x1="1581" y1="1" x2="1581" y2="108" style="stroke:#ddd;stroke-width:2;stroke-dasharray:3 3" />
<line x1="1690" y1="1" x2="1690" y2="108" style="stroke:#ddd;stroke-width:2;stroke-dasharray:3 3" />
<line x1="1799" y1="1" x2="1799" y2="108" style="stroke:#ddd;stroke-width:2;stroke-dasharray:3 3" />
<line x1="1908" y1="1" x2="1908" y2="108" style="stroke:#ddd;stroke-width:2;stroke-dasharray:3 3" />
<line x1="2017" y1="1" x2="2017" y2="108" style="stroke:#ddd;stroke-width:2;stroke-dasharray:3 3" />
<path d="M33.04,13.53 c 0.84,0.84 1.09,2 1.09,3.22 0,2.37 0.08,4.38 0.08,6.23" style="fill:none;stroke:black;stroke-width:3" />
<circle cx="33.04" cy="13.53" r="5" stroke-width="0" fill="#FF2A00" opacity="0.7" />
<path d="M142.04,13.53 c 0.84,0.84 1.09,2 1.09,3.22 0,2.37 0.08,4.38 0.08,6.23" style="fill:none;stroke:#999;stroke-width:3" />
<path d="M121.42,26.15 c 2.46,0.48 5.1,0.31 7.58,-0.02 7.52,-1 19.19,-2.67 27.13,-3.41 2.27,-0.21 4.87,-0.35 7.19,0.04" style="fill:none;stroke:black;stroke-width:3" />
<circle cx="121.42" cy="26.15" r="5" stroke-width="0" fill="#FF2A00" opacity="0.7" />
<path d="M251.04,13.53 c 0.84,0.84 1.09,2 1.09,3.22 0,2.37 0.08,4.38 0.08,6.23" style="fill:none;stroke:#999;stroke-width:3" />
<path d="M230.42000000000002,26.15 c 2.46,0.48 5.1,0.31 7.58,-0.02 7.52,-1 19.19,-2.67 27.13,-3.41 2.27,-0.21 4.87,-0.35 7.19,0.04" style="fill:none;stroke:#999;stroke-width:3" />
<path d="M257.17,29.93 c 0.08,0.95 -0.04,1.63 -0.58,2.43 -3.71,5.52 -7.65,10.01 -13.91,14.89" style="fill:none;stroke:black;stroke-width:3" />
<circle cx="257.17" cy="29.93" r="5" stroke-width="0" fill="#FF2A00" opacity="0.7" />
<path d="M360.03999999999996,13.53 c 0.84,0.84 1.09,2 1.09,3.22 0,2.37 0.08,4.38 0.08,6.23" style="fill:none;stroke:#999;stroke-width:3" />
<path d="M339.42,26.15 c 2.46,0.48 5.1,0.31 7.58,-0.02 7.52,-1 19.19,-2.67 27.13,-3.41 2.27,-0.21 4.87,-0.35 7.19,0.04" style="fill:none;stroke:#999;stroke-width:3" />
<path d="M366.17,29.93 c 0.08,0.95 -0.04,1.63 -0.58,2.43 -3.71,5.52 -7.65,10.01 -13.91,14.89" style="fill:none;stroke:#999;stroke-width:3" />
<path d="M354.36,34.87 c 4.55,1.33 11.09,5.67 13.47,8.84" style="fill:none;stroke:black;stroke-width:3" />
<circle cx="354.36" cy="34.87" r="5" stroke-width="0" fill="#FF2A00" opacity="0.7" />
<path d="M469.03999999999996,13.53 c 0.84,0.84 1.09,2 1.09,3.22 0,2.37 0.08,4.38 0.08,6.23" style="fill:none;stroke:#999;stroke-width:3" />
<path d="M448.42,26.15 c 2.46,0.48 5.1,0.31 7.58,-0.02 7.52,-1 19.19,-2.67 27.13,-3.41 2.27,-0.21 4.87,-0.35 7.19,0.04" style="fill:none;stroke:#999;stroke-width:3" />
<path d="M475.17,29.93 c 0.08,0.95 -0.04,1.63 -0.58,2.43 -3.71,5.52 -7.65,10.01 -13.91,14.89" style="fill:none;stroke:#999;stroke-width:3" />
<path d="M463.36,34.87 c 4.55,1.33 11.09,5.67 13.47,8.84" style="fill:none;stroke:#999;stroke-width:3" />
<path d="M455.06,34.84 c 0.44,0.91 0.44,2.03 0.37,2.95 -0.15,1.99 -1.21,8.65 -1.87,12.22 -0.53,2.84 -0.23,3.41 2.7,2.75 6.75,-1.51 16.62,-3.26 26.85,-4.1" style="fill:none;stroke:black;stroke-width:3" />
<circle cx="455.06" cy="34.84" r="5" stroke-width="0" fill="#FF2A00" opacity="0.7" />
<path d="M578.04,13.53 c 0.84,0.84 1.09,2 1.09,3.22 0,2.37 0.08,4.38 0.08,6.23" style="fill:none;stroke:#999;stroke-width:3" />
<path d="M557.4200000000001,26.15 c 2.46,0.48 5.1,0.31 7.58,-0.02 7.52,-1 19.19,-2.67 27.13,-3.41 2.27,-0.21 4.87,-0.35 7.19,0.04" style="fill:none;stroke:#999;stroke-width:3" />
<path d="M584.1700000000001,29.93 c 0.08,0.95 -0.04,1.63 -0.58,2.43 -3.71,5.52 -7.65,10.01 -13.91,14.89" style="fill:none;stroke:#999;stroke-width:3" />
<path d="M572.36,34.87 c 4.55,1.33 11.09,5.67 13.47,8.84" style="fill:none;stroke:#999;stroke-width:3" />
<path d="M564.06,34.84 c 0.44,0.91 0.44,2.03 0.37,2.95 -0.15,1.99 -1.21,8.65 -1.87,12.22 -0.53,2.84 -0.23,3.41 2.7,2.75 6.75,-1.51 16.62,-3.26 26.85,-4.1" style="fill:none;stroke:#999;stroke-width:3" />
<path d="M592.97,30.3 c 0.68,0.68 0.87,1.7 0.87,2.7 0,0.28 -0.6,9.75 -0.6,12.75 0,1.89 -0.13,3.72 -0.2,5.32" style="fill:none;stroke:black;stroke-width:3" />
<circle cx="592.97" cy="30.3" r="5" stroke-width="0" fill="#FF2A00" opacity="0.7" />
<path d="M687.04,13.53 c 0.84,0.84 1.09,2 1.09,3.22 0,2.37 0.08,4.38 0.08,6.23" style="fill:none;stroke:#999;stroke-width:3" />
<path d="M666.4200000000001,26.15 c 2.46,0.48 5.1,0.31 7.58,-0.02 7.52,-1 19.19,-2.67 27.13,-3.41 2.27,-0.21 4.87,-0.35 7.19,0.04" style="fill:none;stroke:#999;stroke-width:3" />
<path d="M693.1700000000001,29.93 c 0.08,0.95 -0.04,1.63 -0.58,2.43 -3.71,5.52 -7.65,10.01 -13.91,14.89" style="fill:none;stroke:#999;stroke-width:3" />
<path d="M681.36,34.87 c 4.55,1.33 11.09,5.67 13.47,8.84" style="fill:none;stroke:#999;stroke-width:3" />
<path d="M673.06,34.84 c 0.44,0.91 0.44,2.03 0.37,2.95 -0.15,1.99 -1.21,8.65 -1.87,12.22 -0.53,2.84 -0.23,3.41 2.7,2.75 6.75,-1.51 16.62,-3.26 26.85,-4.1" style="fill:none;stroke:#999;stroke-width:3" />
<path d="M701.97,30.3 c 0.68,0.68 0.87,1.7 0.87,2.7 0,0.28 -0.6,9.75 -0.6,12.75 0,1.89 -0.13,3.72 -0.2,5.32" style="fill:none;stroke:#999;stroke-width:3" />
<path d="M669.51,65.73 c 0.94,0.94 1.11,2.25 0.98,3.8 -0.09,1.14 -0.1,14.38 -0.04,22.47 0.02,3 -0.08,4.67 -0.08,5.37" style="fill:none;stroke:black;stroke-width:3" />
<circle cx="669.51" cy="65.73" r="5" stroke-width="0" fill="#FF2A00" opacity="0.7" />
<path d="M796.04,13.53 c 0.84,0.84 1.09,2 1.09,3.22 0,2.37 0.08,4.38 0.08,6.23" style="fill:none;stroke:#999;stroke-width:3" />
<path d="M775.4200000000001,26.15 c 2.46,0.48 5.1,0.31 7.58,-0.02 7.52,-1 19.19,-2.67 27.13,-3.41 2.27,-0.21 4.87,-0.35 7.19,0.04" style="fill:none;stroke:#999;stroke-width:3" />
<path d="M802.1700000000001,29.93 c 0.08,0.95 -0.04,1.63 -0.58,2.43 -3.71,5.52 -7.65,10.01 -13.91,14.89" style="fill:none;stroke:#999;stroke-width:3" />
<path d="M790.36,34.87 c 4.55,1.33 11.09,5.67 13.47,8.84" style="fill:none;stroke:#999;stroke-width:3" />
<path d="M782.06,34.84 c 0.44,0.91 0.44,2.03 0.37,2.95 -0.15,1.99 -1.21,8.65 -1.87,12.22 -0.53,2.84 -0.23,3.41 2.7,2.75 6.75,-1.51 16.62,-3.26 26.85,-4.1" style="fill:none;stroke:#999;stroke-width:3" />
<path d="M810.97,30.3 c 0.68,0.68 0.87,1.7 0.87,2.7 0,0.28 -0.6,9.75 -0.6,12.75 0,1.89 -0.13,3.72 -0.2,5.32" style="fill:none;stroke:#999;stroke-width:3" />
<path d="M778.51,65.73 c 0.94,0.94 1.11,2.25 0.98,3.8 -0.09,1.14 -0.1,14.38 -0.04,22.47 0.02,3 -0.08,4.67 -0.08,5.37" style="fill:none;stroke:#999;stroke-width:3" />
<path d="M780.49,66.96 c 3.91,-0.59 21.02,-3.93 26.96,-4.93 3,-0.5 5.1,0.6 5.02,3.85 -0.14,5.43 -0.34,18.49 -1.09,23.77 -1.14,7.96 -4.26,3.42 -5.5,1.78" style="fill:none;stroke:black;stroke-width:3" />
<circle cx="780.49" cy="66.96" r="5" stroke-width="0" fill="#FF2A00" opacity="0.7" />
<path d="M905.04,13.53 c 0.84,0.84 1.09,2 1.09,3.22 0,2.37 0.08,4.38 0.08,6.23" style="fill:none;stroke:#999;stroke-width:3" />
<path d="M884.4200000000001,26.15 c 2.46,0.48 5.1,0.31 7.58,-0.02 7.52,-1 19.19,-2.67 27.13,-3.41 2.27,-0.21 4.87,-0.35 7.19,0.04" style="fill:none;stroke:#999;stroke-width:3" />
<path d="M911.1700000000001,29.93 c 0.08,0.95 -0.04,1.63 -0.58,2.43 -3.71,5.52 -7.65,10.01 -13.91,14.89" style="fill:none;stroke:#999;stroke-width:3" />
<path d="M899.36,34.87 c 4.55,1.33 11.09,5.67 13.47,8.84" style="fill:none;stroke:#999;stroke-width:3" />
<path d="M891.06,34.84 c 0.44,0.91 0.44,2.03 0.37,2.95 -0.15,1.99 -1.21,8.65 -1.87,12.22 -0.53,2.84 -0.23,3.41 2.7,2.75 6.75,-1.51 16.62,-3.26 26.85,-4.1" style="fill:none;stroke:#999;stroke-width:3" />
<path d="M919.97,30.3 c 0.68,0.68 0.87,1.7 0.87,2.7 0,0.28 -0.6,9.75 -0.6,12.75 0,1.89 -0.13,3.72 -0.2,5.32" style="fill:none;stroke:#999;stroke-width:3" />
<path d="M887.51,65.73 c 0.94,0.94 1.11,2.25 0.98,3.8 -0.09,1.14 -0.1,14.38 -0.04,22.47 0.02,3 -0.08,4.67 -0.08,5.37" style="fill:none;stroke:#999;stroke-width:3" />
<path d="M889.49,66.96 c 3.91,-0.59 21.02,-3.93 26.96,-4.93 3,-0.5 5.1,0.6 5.02,3.85 -0.14,5.43 -0.34,18.49 -1.09,23.77 -1.14,7.96 -4.26,3.42 -5.5,1.78" style="fill:none;stroke:#999;stroke-width:3" />
<path d="M905.48,54 c 0.52,1.12 0.74,2.03 0.33,3.33 -1.288384,7.365808 -3.231125,13.166933 -4.809346,20.401288" style="fill:none;stroke:black;stroke-width:3" />
<circle cx="905.48" cy="54.0" r="5" stroke-width="0" fill="#FF2A00" opacity="0.7" />
<path d="M1014.04,13.53 c 0.84,0.84 1.09,2 1.09,3.22 0,2.37 0.08,4.38 0.08,6.23" style="fill:none;stroke:#999;stroke-width:3" />
<path d="M993.4200000000001,26.15 c 2.46,0.48 5.1,0.31 7.58,-0.02 7.52,-1 19.19,-2.67 27.13,-3.41 2.27,-0.21 4.87,-0.35 7.19,0.04" style="fill:none;stroke:#999;stroke-width:3" />
<path d="M1020.1700000000001,29.93 c 0.08,0.95 -0.04,1.63 -0.58,2.43 -3.71,5.52 -7.65,10.01 -13.91,14.89" style="fill:none;stroke:#999;stroke-width:3" />
<path d="M1008.36,34.87 c 4.55,1.33 11.09,5.67 13.47,8.84" style="fill:none;stroke:#999;stroke-width:3" />
<path d="M1000.06,34.84 c 0.44,0.91 0.44,2.03 0.37,2.95 -0.15,1.99 -1.21,8.65 -1.87,12.22 -0.53,2.84 -0.23,3.41 2.7,2.75 6.75,-1.51 16.62,-3.26 26.85,-4.1" style="fill:none;stroke:#999;stroke-width:3" />
<path d="M1028.97,30.3 c 0.68,0.68 0.87,1.7 0.87,2.7 0,0.28 -0.6,9.75 -0.6,12.75 0,1.89 -0.13,3.72 -0.2,5.32" style="fill:none;stroke:#999;stroke-width:3" />
<path d="M996.51,65.73 c 0.94,0.94 1.11,2.25 0.98,3.8 -0.09,1.14 -0.1,14.38 -0.04,22.47 0.02,3 -0.08,4.67 -0.08,5.37" style="fill:none;stroke:#999;stroke-width:3" />
<path d="M998.49,66.96 c 3.91,-0.59 21.02,-3.93 26.96,-4.93 3,-0.5 5.1,0.6 5.02,3.85 -0.14,5.43 -0.34,18.49 -1.09,23.77 -1.14,7.96 -4.26,3.42 -5.5,1.78" style="fill:none;stroke:#999;stroke-width:3" />
<path d="M1014.48,54 c 0.52,1.12 0.74,2.03 0.33,3.33 -1.288384,7.365808 -3.231125,13.166933 -4.809346,20.401288" style="fill:none;stroke:#999;stroke-width:3" />
<path d="M1004.236278,82.064008 c 4.65,-2.45 8.743558,-4.398875 14.483558,-6.998875" style="fill:none;stroke:black;stroke-width:3" />
<circle cx="1004.236278" cy="82.064008" r="5" stroke-width="0" fill="#FF2A00" opacity="0.7" />
<path d="M1123.04,13.53 c 0.84,0.84 1.09,2 1.09,3.22 0,2.37 0.08,4.38 0.08,6.23" style="fill:none;stroke:#999;stroke-width:3" />
<path d="M1102.42,26.15 c 2.46,0.48 5.1,0.31 7.58,-0.02 7.52,-1 19.19,-2.67 27.13,-3.41 2.27,-0.21 4.87,-0.35 7.19,0.04" style="fill:none;stroke:#999;stroke-width:3" />
<path d="M1129.17,29.93 c 0.08,0.95 -0.04,1.63 -0.58,2.43 -3.71,5.52 -7.65,10.01 -13.91,14.89" style="fill:none;stroke:#999;stroke-width:3" />
<path d="M1117.3600000000001,34.87 c 4.55,1.33 11.09,5.67 13.47,8.84" style="fill:none;stroke:#999;stroke-width:3" />
<path d="M1109.06,34.84 c 0.44,0.91 0.44,2.03 0.37,2.95 -0.15,1.99 -1.21,8.65 -1.87,12.22 -0.53,2.84 -0.23,3.41 2.7,2.75 6.75,-1.51 16.62,-3.26 26.85,-4.1" style="fill:none;stroke:#999;stroke-width:3" />
<path d="M1137.97,30.3 c 0.68,0.68 0.87,1.7 0.87,2.7 0,0.28 -0.6,9.75 -0.6,12.75 0,1.89 -0.13,3.72 -0.2,5.32" style="fill:none;stroke:#999;stroke-width:3" />
<path d="M1105.51,65.73 c 0.94,0.94 1.11,2.25 0.98,3.8 -0.09,1.14 -0.1,14.38 -0.04,22.47 0.02,3 -0.08,4.67 -0.08,5.37" style="fill:none;stroke:#999;stroke-width:3" />
<path d="M1107.49,66.96 c 3.91,-0.59 21.02,-3.93 26.96,-4.93 3,-0.5 5.1,0.6 5.02,3.85 -0.14,5.43 -0.34,18.49 -1.09,23.77 -1.14,7.96 -4.26,3.42 -5.5,1.78" style="fill:none;stroke:#999;stroke-width:3" />
<path d="M1123.48,54 c 0.52,1.12 0.74,2.03 0.33,3.33 -1.288384,7.365808 -3.231125,13.166933 -4.809346,20.401288" style="fill:none;stroke:#999;stroke-width:3" />
<path d="M1113.2362779999999,82.064008 c 4.65,-2.45 8.743558,-4.398875 14.483558,-6.998875" style="fill:none;stroke:#999;stroke-width:3" />
<path d="M1126.76,70.56 c 2.07,1.57 4.74,5.94 5.87,8.91" style="fill:none;stroke:black;stroke-width:3" />
<circle cx="1126.76" cy="70.56" r="5" stroke-width="0" fill="#FF2A00" opacity="0.7" />
<path d="M1232.04,13.53 c 0.84,0.84 1.09,2 1.09,3.22 0,2.37 0.08,4.38 0.08,6.23" style="fill:none;stroke:#999;stroke-width:3" />
<path d="M1211.42,26.15 c 2.46,0.48 5.1,0.31 7.58,-0.02 7.52,-1 19.19,-2.67 27.13,-3.41 2.27,-0.21 4.87,-0.35 7.19,0.04" style="fill:none;stroke:#999;stroke-width:3" />
<path d="M1238.17,29.93 c 0.08,0.95 -0.04,1.63 -0.58,2.43 -3.71,5.52 -7.65,10.01 -13.91,14.89" style="fill:none;stroke:#999;stroke-width:3" />
<path d="M1226.3600000000001,34.87 c 4.55,1.33 11.09,5.67 13.47,8.84" style="fill:none;stroke:#999;stroke-width:3" />
<path d="M1218.06,34.84 c 0.44,0.91 0.44,2.03 0.37,2.95 -0.15,1.99 -1.21,8.65 -1.87,12.22 -0.53,2.84 -0.23,3.41 2.7,2.75 6.75,-1.51 16.62,-3.26 26.85,-4.1" style="fill:none;stroke:#999;stroke-width:3" />
<path d="M1246.97,30.3 c 0.68,0.68 0.87,1.7 0.87,2.7 0,0.28 -0.6,9.75 -0.6,12.75 0,1.89 -0.13,3.72 -0.2,5.32" style="fill:none;stroke:#999;stroke-width:3" />
<path d="M1214.51,65.73 c 0.94,0.94 1.11,2.25 0.98,3.8 -0.09,1.14 -0.1,14.38 -0.04,22.47 0.02,3 -0.08,4.67 -0.08,5.37" style="fill:none;stroke:#999;stroke-width:3" />
<path d="M1216.49,66.96 c 3.91,-0.59 21.02,-3.93 26.96,-4.93 3,-0.5 5.1,0.6 5.02,3.85 -0.14,5.43 -0.34,18.49 -1.09,23.77 -1.14,7.96 -4.26,3.42 -5.5,1.78" style="fill:none;stroke:#999;stroke-width:3" />
<path d="M1232.48,54 c 0.52,1.12 0.74,2.03 0.33,3.33 -1.288384,7.365808 -3.231125,13.166933 -4.809346,20.401288" style="fill:none;stroke:#999;stroke-width:3" />
<path d="M1222.2362779999999,82.064008 c 4.65,-2.45 8.743558,-4.398875 14.483558,-6.998875" style="fill:none;stroke:#999;stroke-width:3" />
<path d="M1235.76,70.56 c 2.07,1.57 4.74,5.94 5.87,8.91" style="fill:none;stroke:#999;stroke-width:3" />
<path d="M1265.89,17.5 c 0.13,1.75 -0.04,2.55 -0.46,4.05 -2.67,9.57 -6.81,18.7 -12.93,29.32" style="fill:none;stroke:black;stroke-width:3" />
<circle cx="1265.89" cy="17.5" r="5" stroke-width="0" fill="#FF2A00" opacity="0.7" />
<path d="M1341.04,13.53 c 0.84,0.84 1.09,2 1.09,3.22 0,2.37 0.08,4.38 0.08,6.23" style="fill:none;stroke:#999;stroke-width:3" />
<path d="M1320.42,26.15 c 2.46,0.48 5.1,0.31 7.58,-0.02 7.52,-1 19.19,-2.67 27.13,-3.41 2.27,-0.21 4.87,-0.35 7.19,0.04" style="fill:none;stroke:#999;stroke-width:3" />
<path d="M1347.17,29.93 c 0.08,0.95 -0.04,1.63 -0.58,2.43 -3.71,5.52 -7.65,10.01 -13.91,14.89" style="fill:none;stroke:#999;stroke-width:3" />
<path d="M1335.3600000000001,34.87 c 4.55,1.33 11.09,5.67 13.47,8.84" style="fill:none;stroke:#999;stroke-width:3" />
<path d="M1327.06,34.84 c 0.44,0.91 0.44,2.03 0.37,2.95 -0.15,1.99 -1.21,8.65 -1.87,12.22 -0.53,2.84 -0.23,3.41 2.7,2.75 6.75,-1.51 16.62,-3.26 26.85,-4.1" style="fill:none;stroke:#999;stroke-width:3" />
<path d="M1355.97,30.3 c 0.68,0.68 0.87,1.7 0.87,2.7 0,0.28 -0.6,9.75 -0.6,12.75 0,1.89 -0.13,3.72 -0.2,5.32" style="fill:none;stroke:#999;stroke-width:3" />
<path d="M1323.51,65.73 c 0.94,0.94 1.11,2.25 0.98,3.8 -0.09,1.14 -0.1,14.38 -0.04,22.47 0.02,3 -0.08,4.67 -0.08,5.37" style="fill:none;stroke:#999;stroke-width:3" />
<path d="M1325.49,66.96 c 3.91,-0.59 21.02,-3.93 26.96,-4.93 3,-0.5 5.1,0.6 5.02,3.85 -0.14,5.43 -0.34,18.49 -1.09,23.77 -1.14,7.96 -4.26,3.42 -5.5,1.78" style="fill:none;stroke:#999;stroke-width:3" />
<path d="M1341.48,54 c 0.52,1.12 0.74,2.03 0.33,3.33 -1.288384,7.365808 -3.231125,13.166933 -4.809346,20.401288" style="fill:none;stroke:#999;stroke-width:3" />
<path d="M1331.2362779999999,82.064008 c 4.65,-2.45 8.743558,-4.398875 14.483558,-6.998875" style="fill:none;stroke:#999;stroke-width:3" />
<path d="M1344.76,70.56 c 2.07,1.57 4.74,5.94 5.87,8.91" style="fill:none;stroke:#999;stroke-width:3" />
<path d="M1374.89,17.5 c 0.13,1.75 -0.04,2.55 -0.46,4.05 -2.67,9.57 -6.81,18.7 -12.93,29.32" style="fill:none;stroke:#999;stroke-width:3" />
<path d="M1368.44,39.43 c 0.87,0.87 0.9,1.82 0.9,3.13 0,9.03 0,39.94 0,47.94 0,4.5 -0.09,5.88 -0.09,7.5" style="fill:none;stroke:black;stroke-width:3" />
<circle cx="1368.44" cy="39.43" r="5" stroke-width="0" fill="#FF2A00" opacity="0.7" />
<path d="M1450.04,13.53 c 0.84,0.84 1.09,2 1.09,3.22 0,2.37 0.08,4.38 0.08,6.23" style="fill:none;stroke:#999;stroke-width:3" />
<path d="M1429.42,26.15 c 2.46,0.48 5.1,0.31 7.58,-0.02 7.52,-1 19.19,-2.67 27.13,-3.41 2.27,-0.21 4.87,-0.35 7.19,0.04" style="fill:none;stroke:#999;stroke-width:3" />
<path d="M1456.17,29.93 c 0.08,0.95 -0.04,1.63 -0.58,2.43 -3.71,5.52 -7.65,10.01 -13.91,14.89" style="fill:none;stroke:#999;stroke-width:3" />
<path d="M1444.3600000000001,34.87 c 4.55,1.33 11.09,5.67 13.47,8.84" style="fill:none;stroke:#999;stroke-width:3" />
<path d="M1436.06,34.84 c 0.44,0.91 0.44,2.03 0.37,2.95 -0.15,1.99 -1.21,8.65 -1.87,12.22 -0.53,2.84 -0.23,3.41 2.7,2.75 6.75,-1.51 16.62,-3.26 26.85,-4.1" style="fill:none;stroke:#999;stroke-width:3" />
<path d="M1464.97,30.3 c 0.68,0.68 0.87,1.7 0.87,2.7 0,0.28 -0.6,9.75 -0.6,12.75 0,1.89 -0.13,3.72 -0.2,5.32" style="fill:none;stroke:#999;stroke-width:3" />
<path d="M1432.51,65.73 c 0.94,0.94 1.11,2.25 0.98,3.8 -0.09,1.14 -0.1,14.38 -0.04,22.47 0.02,3 -0.08,4.67 -0.08,5.37" style="fill:none;stroke:#999;stroke-width:3" />
<path d="M1434.49,66.96 c 3.91,-0.59 21.02,-3.93 26.96,-4.93 3,-0.5 5.1,0.6 5.02,3.85 -0.14,5.43 -0.34,18.49 -1.09,23.77 -1.14,7.96 -4.26,3.42 -5.5,1.78" style="fill:none;stroke:#999;stroke-width:3" />
<path d="M1450.48,54 c 0.52,1.12 0.74,2.03 0.33,3.33 -1.288384,7.365808 -3.231125,13.166933 -4.809346,20.401288" style="fill:none;stroke:#999;stroke-width:3" />
<path d="M1440.2362779999999,82.064008 c 4.65,-2.45 8.743558,-4.398875 14.483558,-6.998875" style="fill:none;stroke:#999;stroke-width:3" />
<path d="M1453.76,70.56 c 2.07,1.57 4.74,5.94 5.87,8.91" style="fill:none;stroke:#999;stroke-width:3" />
<path d="M1483.89,17.5 c 0.13,1.75 -0.04,2.55 -0.46,4.05 -2.67,9.57 -6.81,18.7 -12.93,29.32" style="fill:none;stroke:#999;stroke-width:3" />
<path d="M1477.44,39.43 c 0.87,0.87 0.9,1.82 0.9,3.13 0,9.03 0,39.94 0,47.94 0,4.5 -0.09,5.88 -0.09,7.5" style="fill:none;stroke:#999;stroke-width:3" />
<path d="M1501.2,17.72 c 0.06,0.95 0.02,2.2 -0.21,2.99 -1.24,4.28 -3.03,8.91 -5.85,15.2" style="fill:none;stroke:black;stroke-width:3" />
<circle cx="1501.2" cy="17.72" r="5" stroke-width="0" fill="#FF2A00" opacity="0.7" />
<path d="M1559.04,13.53 c 0.84,0.84 1.09,2 1.09,3.22 0,2.37 0.08,4.38 0.08,6.23" style="fill:none;stroke:#999;stroke-width:3" />
<path d="M1538.42,26.15 c 2.46,0.48 5.1,0.31 7.58,-0.02 7.52,-1 19.19,-2.67 27.13,-3.41 2.27,-0.21 4.87,-0.35 7.19,0.04" style="fill:none;stroke:#999;stroke-width:3" />
<path d="M1565.17,29.93 c 0.08,0.95 -0.04,1.63 -0.58,2.43 -3.71,5.52 -7.65,10.01 -13.91,14.89" style="fill:none;stroke:#999;stroke-width:3" />
<path d="M1553.3600000000001,34.87 c 4.55,1.33 11.09,5.67 13.47,8.84" style="fill:none;stroke:#999;stroke-width:3" />
<path d="M1545.06,34.84 c 0.44,0.91 0.44,2.03 0.37,2.95 -0.15,1.99 -1.21,8.65 -1.87,12.22 -0.53,2.84 -0.23,3.41 2.7,2.75 6.75,-1.51 16.62,-3.26 26.85,-4.1" style="fill:none;stroke:#999;stroke-width:3" />
<path d="M1573.97,30.3 c 0.68,0.68 0.87,1.7 0.87,2.7 0,0.28 -0.6,9.75 -0.6,12.75 0,1.89 -0.13,3.72 -0.2,5.32" style="fill:none;stroke:#999;stroke-width:3" />
<path d="M1541.51,65.73 c 0.94,0.94 1.11,2.25 0.98,3.8 -0.09,1.14 -0.1,14.38 -0.04,22.47 0.02,3 -0.08,4.67 -0.08,5.37" style="fill:none;stroke:#999;stroke-width:3" />
<path d="M1543.49,66.96 c 3.91,-0.59 21.02,-3.93 26.96,-4.93 3,-0.5 5.1,0.6 5.02,3.85 -0.14,5.43 -0.34,18.49 -1.09,23.77 -1.14,7.96 -4.26,3.42 -5.5,1.78" style="fill:none;stroke:#999;stroke-width:3" />
<path d="M1559.48,54 c 0.52,1.12 0.74,2.03 0.33,3.33 -1.288384,7.365808 -3.231125,13.166933 -4.809346,20.401288" style="fill:none;stroke:#999;stroke-width:3" />
<path d="M1549.2362779999999,82.064008 c 4.65,-2.45 8.743558,-4.398875 14.483558,-6.998875" style="fill:none;stroke:#999;stroke-width:3" />
<path d="M1562.76,70.56 c 2.07,1.57 4.74,5.94 5.87,8.91" style="fill:none;stroke:#999;stroke-width:3" />
<path d="M1592.89,17.5 c 0.13,1.75 -0.04,2.55 -0.46,4.05 -2.67,9.57 -6.81,18.7 -12.93,29.32" style="fill:none;stroke:#999;stroke-width:3" />
<path d="M1586.44,39.43 c 0.87,0.87 0.9,1.82 0.9,3.13 0,9.03 0,39.94 0,47.94 0,4.5 -0.09,5.88 -0.09,7.5" style="fill:none;stroke:#999;stroke-width:3" />
<path d="M1610.2,17.72 c 0.06,0.95 0.02,2.2 -0.21,2.99 -1.24,4.28 -3.03,8.91 -5.85,15.2" style="fill:none;stroke:#999;stroke-width:3" />
<path d="M1587.41,38.94 C1593.77,38.11,1606.3,36.7,1614.0,35.74 c 3,-0.37 5.26,-0.68 6.14,-0.85" style="fill:none;stroke:black;stroke-width:3" />
<circle cx="1587.41" cy="38.94" r="5" stroke-width="0" fill="#FF2A00" opacity="0.7" />
<path d="M1668.04,13.53 c 0.84,0.84 1.09,2 1.09,3.22 0,2.37 0.08,4.38 0.08,6.23" style="fill:none;stroke:#999;stroke-width:3" />
<path d="M1647.42,26.15 c 2.46,0.48 5.1,0.31 7.58,-0.02 7.52,-1 19.19,-2.67 27.13,-3.41 2.27,-0.21 4.87,-0.35 7.19,0.04" style="fill:none;stroke:#999;stroke-width:3" />
<path d="M1674.17,29.93 c 0.08,0.95 -0.04,1.63 -0.58,2.43 -3.71,5.52 -7.65,10.01 -13.91,14.89" style="fill:none;stroke:#999;stroke-width:3" />
<path d="M1662.3600000000001,34.87 c 4.55,1.33 11.09,5.67 13.47,8.84" style="fill:none;stroke:#999;stroke-width:3" />
<path d="M1654.06,34.84 c 0.44,0.91 0.44,2.03 0.37,2.95 -0.15,1.99 -1.21,8.65 -1.87,12.22 -0.53,2.84 -0.23,3.41 2.7,2.75 6.75,-1.51 16.62,-3.26 26.85,-4.1" style="fill:none;stroke:#999;stroke-width:3" />
<path d="M1682.97,30.3 c 0.68,0.68 0.87,1.7 0.87,2.7 0,0.28 -0.6,9.75 -0.6,12.75 0,1.89 -0.13,3.72 -0.2,5.32" style="fill:none;stroke:#999;stroke-width:3" />
<path d="M1650.51,65.73 c 0.94,0.94 1.11,2.25 0.98,3.8 -0.09,1.14 -0.1,14.38 -0.04,22.47 0.02,3 -0.08,4.67 -0.08,5.37" style="fill:none;stroke:#999;stroke-width:3" />
<path d="M1652.49,66.96 c 3.91,-0.59 21.02,-3.93 26.96,-4.93 3,-0.5 5.1,0.6 5.02,3.85 -0.14,5.43 -0.34,18.49 -1.09,23.77 -1.14,7.96 -4.26,3.42 -5.5,1.78" style="fill:none;stroke:#999;stroke-width:3" />
<path d="M1668.48,54 c 0.52,1.12 0.74,2.03 0.33,3.33 -1.288384,7.365808 -3.231125,13.166933 -4.809346,20.401288" style="fill:none;stroke:#999;stroke-width:3" />
<path d="M1658.2362779999999,82.064008 c 4.65,-2.45 8.743558,-4.398875 14.483558,-6.998875" style="fill:none;stroke:#999;stroke-width:3" />
<path d="M1671.76,70.56 c 2.07,1.57 4.74,5.94 5.87,8.91" style="fill:none;stroke:#999;stroke-width:3" />
<path d="M1701.89,17.5 c 0.13,1.75 -0.04,2.55 -0.46,4.05 -2.67,9.57 -6.81,18.7 -12.93,29.32" style="fill:none;stroke:#999;stroke-width:3" />
<path d="M1695.44,39.43 c 0.87,0.87 0.9,1.82 0.9,3.13 0,9.03 0,39.94 0,47.94 0,4.5 -0.09,5.88 -0.09,7.5" style="fill:none;stroke:#999;stroke-width:3" />
<path d="M1719.2,17.72 c 0.06,0.95 0.02,2.2 -0.21,2.99 -1.24,4.28 -3.03,8.91 -5.85,15.2" style="fill:none;stroke:#999;stroke-width:3" />
<path d="M1696.41,38.94 C1702.77,38.11,1715.3,36.7,1723.0,35.74 c 3,-0.37 5.26,-0.68 6.14,-0.85" style="fill:none;stroke:#999;stroke-width:3" />
<path d="M1713.73,38.61 c 0.83,0.83 0.88,2.11 0.88,3.26 C1714.6,50.98,1714.5,74.72,1714.5,87" style="fill:none;stroke:black;stroke-width:3" />
<circle cx="1713.73" cy="38.61" r="5" stroke-width="0" fill="#FF2A00" opacity="0.7" />
<path d="M1777.04,13.53 c 0.84,0.84 1.09,2 1.09,3.22 0,2.37 0.08,4.38 0.08,6.23" style="fill:none;stroke:#999;stroke-width:3" />
<path d="M1756.42,26.15 c 2.46,0.48 5.1,0.31 7.58,-0.02 7.52,-1 19.19,-2.67 27.13,-3.41 2.27,-0.21 4.87,-0.35 7.19,0.04" style="fill:none;stroke:#999;stroke-width:3" />
<path d="M1783.17,29.93 c 0.08,0.95 -0.04,1.63 -0.58,2.43 -3.71,5.52 -7.65,10.01 -13.91,14.89" style="fill:none;stroke:#999;stroke-width:3" />
<path d="M1771.3600000000001,34.87 c 4.55,1.33 11.09,5.67 13.47,8.84" style="fill:none;stroke:#999;stroke-width:3" />
<path d="M1763.06,34.84 c 0.44,0.91 0.44,2.03 0.37,2.95 -0.15,1.99 -1.21,8.65 -1.87,12.22 -0.53,2.84 -0.23,3.41 2.7,2.75 6.75,-1.51 16.62,-3.26 26.85,-4.1" style="fill:none;stroke:#999;stroke-width:3" />
<path d="M1791.97,30.3 c 0.68,0.68 0.87,1.7 0.87,2.7 0,0.28 -0.6,9.75 -0.6,12.75 0,1.89 -0.13,3.72 -0.2,5.32" style="fill:none;stroke:#999;stroke-width:3" />
<path d="M1759.51,65.73 c 0.94,0.94 1.11,2.25 0.98,3.8 -0.09,1.14 -0.1,14.38 -0.04,22.47 0.02,3 -0.08,4.67 -0.08,5.37" style="fill:none;stroke:#999;stroke-width:3" />
<path d="M1761.49,66.96 c 3.91,-0.59 21.02,-3.93 26.96,-4.93 3,-0.5 5.1,0.6 5.02,3.85 -0.14,5.43 -0.34,18.49 -1.09,23.77 -1.14,7.96 -4.26,3.42 -5.5,1.78" style="fill:none;stroke:#999;stroke-width:3" />
<path d="M1777.48,54 c 0.52,1.12 0.74,2.03 0.33,3.33 -1.288384,7.365808 -3.231125,13.166933 -4.809346,20.401288" style="fill:none;stroke:#999;stroke-width:3" />
<path d="M1767.2362779999999,82.064008 c 4.65,-2.45 8.743558,-4.398875 14.483558,-6.998875" style="fill:none;stroke:#999;stroke-width:3" />
<path d="M1780.76,70.56 c 2.07,1.57 4.74,5.94 5.87,8.91" style="fill:none;stroke:#999;stroke-width:3" />
<path d="M1810.89,17.5 c 0.13,1.75 -0.04,2.55 -0.46,4.05 -2.67,9.57 -6.81,18.7 -12.93,29.32" style="fill:none;stroke:#999;stroke-width:3" />
<path d="M1804.44,39.43 c 0.87,0.87 0.9,1.82 0.9,3.13 0,9.03 0,39.94 0,47.94 0,4.5 -0.09,5.88 -0.09,7.5" style="fill:none;stroke:#999;stroke-width:3" />
<path d="M1828.2,17.72 c 0.06,0.95 0.02,2.2 -0.21,2.99 -1.24,4.28 -3.03,8.91 -5.85,15.2" style="fill:none;stroke:#999;stroke-width:3" />
<path d="M1805.41,38.94 C1811.77,38.11,1824.3,36.7,1832.0,35.74 c 3,-0.37 5.26,-0.68 6.14,-0.85" style="fill:none;stroke:#999;stroke-width:3" />
<path d="M1822.73,38.61 c 0.83,0.83 0.88,2.11 0.88,3.26 C1823.6,50.98,1823.5,74.72,1823.5,87" style="fill:none;stroke:#999;stroke-width:3" />
<path d="M1806.39,55.45 c 5.99,-0.7 17.35,-1.81 24.62,-2.55 2.59,-0.27 4.55,-0.48 5.33,-0.62" style="fill:none;stroke:black;stroke-width:3" />
<circle cx="1806.39" cy="55.45" r="5" stroke-width="0" fill="#FF2A00" opacity="0.7" />
<path d="M1886.04,13.53 c 0.84,0.84 1.09,2 1.09,3.22 0,2.37 0.08,4.38 0.08,6.23" style="fill:none;stroke:#999;stroke-width:3" />
<path d="M1865.42,26.15 c 2.46,0.48 5.1,0.31 7.58,-0.02 7.52,-1 19.19,-2.67 27.13,-3.41 2.27,-0.21 4.87,-0.35 7.19,0.04" style="fill:none;stroke:#999;stroke-width:3" />
<path d="M1892.17,29.93 c 0.08,0.95 -0.04,1.63 -0.58,2.43 -3.71,5.52 -7.65,10.01 -13.91,14.89" style="fill:none;stroke:#999;stroke-width:3" />
<path d="M1880.3600000000001,34.87 c 4.55,1.33 11.09,5.67 13.47,8.84" style="fill:none;stroke:#999;stroke-width:3" />
<path d="M1872.06,34.84 c 0.44,0.91 0.44,2.03 0.37,2.95 -0.15,1.99 -1.21,8.65 -1.87,12.22 -0.53,2.84 -0.23,3.41 2.7,2.75 6.75,-1.51 16.62,-3.26 26.85,-4.1" style="fill:none;stroke:#999;stroke-width:3" />
<path d="M1900.97,30.3 c 0.68,0.68 0.87,1.7 0.87,2.7 0,0.28 -0.6,9.75 -0.6,12.75 0,1.89 -0.13,3.72 -0.2,5.32" style="fill:none;stroke:#999;stroke-width:3" />
<path d="M1868.51,65.73 c 0.94,0.94 1.11,2.25 0.98,3.8 -0.09,1.14 -0.1,14.38 -0.04,22.47 0.02,3 -0.08,4.67 -0.08,5.37" style="fill:none;stroke:#999;stroke-width:3" />
<path d="M1870.49,66.96 c 3.91,-0.59 21.02,-3.93 26.96,-4.93 3,-0.5 5.1,0.6 5.02,3.85 -0.14,5.43 -0.34,18.49 -1.09,23.77 -1.14,7.96 -4.26,3.42 -5.5,1.78" style="fill:none;stroke:#999;stroke-width:3" />
<path d="M1886.48,54 c 0.52,1.12 0.74,2.03 0.33,3.33 -1.288384,7.365808 -3.231125,13.166933 -4.809346,20.401288" style="fill:none;stroke:#999;stroke-width:3" />
<path d="M1876.2362779999999,82.064008 c 4.65,-2.45 8.743558,-4.398875 14.483558,-6.998875" style="fill:none;stroke:#999;stroke-width:3" />
<path d="M1889.76,70.56 c 2.07,1.57 4.74,5.94 5.87,8.91" style="fill:none;stroke:#999;stroke-width:3" />
<path d="M1919.89,17.5 c 0.13,1.75 -0.04,2.55 -0.46,4.05 -2.67,9.57 -6.81,18.7 -12.93,29.32" style="fill:none;stroke:#999;stroke-width:3" />
<path d="M1913.44,39.43 c 0.87,0.87 0.9,1.82 0.9,3.13 0,9.03 0,39.94 0,47.94 0,4.5 -0.09,5.88 -0.09,7.5" style="fill:none;stroke:#999;stroke-width:3" />
<path d="M1937.2,17.72 c 0.06,0.95 0.02,2.2 -0.21,2.99 -1.24,4.28 -3.03,8.91 -5.85,15.2" style="fill:none;stroke:#999;stroke-width:3" />
<path d="M1914.41,38.94 C1920.77,38.11,1933.3,36.7,1941.0,35.74 c 3,-0.37 5.26,-0.68 6.14,-0.85" style="fill:none;stroke:#999;stroke-width:3" />
<path d="M1931.73,38.61 c 0.83,0.83 0.88,2.11 0.88,3.26 C1932.6,50.98,1932.5,74.72,1932.5,87" style="fill:none;stroke:#999;stroke-width:3" />
<path d="M1915.39,55.45 c 5.99,-0.7 17.35,-1.81 24.62,-2.55 2.59,-0.27 4.55,-0.48 5.33,-0.62" style="fill:none;stroke:#999;stroke-width:3" />
<path d="M1915.68,70.89 c 6.2,-0.64 18.68,-2.1 25.71,-2.91 2.01,-0.23 3.51,-0.42 4.19,-0.54" style="fill:none;stroke:black;stroke-width:3" />
<circle cx="1915.68" cy="70.89" r="5" stroke-width="0" fill="#FF2A00" opacity="0.7" />
<path d="M1995.04,13.53 c 0.84,0.84 1.09,2 1.09,3.22 0,2.37 0.08,4.38 0.08,6.23" style="fill:none;stroke:#999;stroke-width:3" />
<path d="M1974.42,26.15 c 2.46,0.48 5.1,0.31 7.58,-0.02 7.52,-1 19.19,-2.67 27.13,-3.41 2.27,-0.21 4.87,-0.35 7.19,0.04" style="fill:none;stroke:#999;stroke-width:3" />
<path d="M2001.17,29.93 c 0.08,0.95 -0.04,1.63 -0.58,2.43 -3.71,5.52 -7.65,10.01 -13.91,14.89" style="fill:none;stroke:#999;stroke-width:3" />
<path d="M1989.3600000000001,34.87 c 4.55,1.33 11.09,5.67 13.47,8.84" style="fill:none;stroke:#999;stroke-width:3" />
<path d="M1981.06,34.84 c 0.44,0.91 0.44,2.03 0.37,2.95 -0.15,1.99 -1.21,8.65 -1.87,12.22 -0.53,2.84 -0.23,3.41 2.7,2.75 6.75,-1.51 16.62,-3.26 26.85,-4.1" style="fill:none;stroke:#999;stroke-width:3" />
<path d="M2009.97,30.3 c 0.68,0.68 0.87,1.7 0.87,2.7 0,0.28 -0.6,9.75 -0.6,12.75 0,1.89 -0.13,3.72 -0.2,5.32" style="fill:none;stroke:#999;stroke-width:3" />
<path d="M1977.51,65.73 c 0.94,0.94 1.11,2.25 0.98,3.8 -0.09,1.14 -0.1,14.38 -0.04,22.47 0.02,3 -0.08,4.67 -0.08,5.37" style="fill:none;stroke:#999;stroke-width:3" />
<path d="M1979.49,66.96 c 3.91,-0.59 21.02,-3.93 26.96,-4.93 3,-0.5 5.1,0.6 5.02,3.85 -0.14,5.43 -0.34,18.49 -1.09,23.77 -1.14,7.96 -4.26,3.42 -5.5,1.78" style="fill:none;stroke:#999;stroke-width:3" />
<path d="M1995.48,54 c 0.52,1.12 0.74,2.03 0.33,3.33 -1.288384,7.365808 -3.231125,13.166933 -4.809346,20.401288" style="fill:none;stroke:#999;stroke-width:3" />
<path d="M1985.2362779999999,82.064008 c 4.65,-2.45 8.743558,-4.398875 14.483558,-6.998875" style="fill:none;stroke:#999;stroke-width:3" />
<path d="M1998.76,70.56 c 2.07,1.57 4.74,5.94 5.87,8.91" style="fill:none;stroke:#999;stroke-width:3" />
<path d="M2028.89,17.5 c 0.13,1.75 -0.04,2.55 -0.46,4.05 -2.67,9.57 -6.81,18.7 -12.93,29.32" style="fill:none;stroke:#999;stroke-width:3" />
<path d="M2022.44,39.43 c 0.87,0.87 0.9,1.82 0.9,3.13 0,9.03 0,39.94 0,47.94 0,4.5 -0.09,5.88 -0.09,7.5" style="fill:none;stroke:#999;stroke-width:3" />
<path d="M2046.2,17.72 c 0.06,0.95 0.02,2.2 -0.21,2.99 -1.24,4.28 -3.03,8.91 -5.85,15.2" style="fill:none;stroke:#999;stroke-width:3" />
<path d="M2023.41,38.94 C2029.77,38.11,2042.3,36.7,2050.0,35.74 c 3,-0.37 5.26,-0.68 6.14,-0.85" style="fill:none;stroke:#999;stroke-width:3" />
<path d="M2040.73,38.61 c 0.83,0.83 0.88,2.11 0.88,3.26 C2041.6,50.98,2041.5,74.72,2041.5,87" style="fill:none;stroke:#999;stroke-width:3" />
<path d="M2024.39,55.45 c 5.99,-0.7 17.35,-1.81 24.62,-2.55 2.59,-0.27 4.55,-0.48 5.33,-0.62" style="fill:none;stroke:#999;stroke-width:3" />
<path d="M2024.68,70.89 c 6.2,-0.64 18.68,-2.1 25.71,-2.91 2.01,-0.23 3.51,-0.42 4.19,-0.54" style="fill:none;stroke:#999;stroke-width:3" />
<path d="M2024.55,89.97 c 7.7,-0.72 20.75,-2.07 29.2,-2.85 2.47,-0.23 4.29,-0.42 5,-0.56" style="fill:none;stroke:black;stroke-width:3" />
<circle cx="2024.55" cy="89.97" r="5" stroke-width="0" fill="#FF2A00" opacity="0.7" />
</svg>