<svg width="2289px" height="109px" viewBox="0 0 2289px 109px" xmlns="http://www.w3.org/2000/svg" xmlns:xlink="http://www.w3.org/1999/xlink" xml:space="preserve" version="1.1"  baseProfile="full">
<line x1="1" y1="1" x2="2288" y2="1" style="stroke:#ddd;stroke-width:2" />
<line x1="1" y1="1" x2="1" y2="108" style="stroke:#ddd;stroke-width:2" />
<line x1="1" y1="108" x2="2288" y2="108" style="stroke:#ddd;stroke-width:2" />
<line x1="2288" y1="1" x2="2288" y2="108" style="stroke:#ddd;stroke-width:2" />
<line x1="109" y1="1" x2="109" y2="108" style="stroke:#ddd;stroke-width:2" />
<line x1="218" y1="1" x2="218" y2="108" style="stroke:#ddd;stroke-width:2" />
<line x1="327" y1="1" x2="327" y2="108" style="stroke:#ddd;stroke-width:2" />
<line x1="436" y1="1" x2="436" y2="108" style="stroke:#ddd;stroke-width:2" />
<line x1="545" y1="1" x2="545" y2="108" style="stroke:#ddd;stroke-width:2" />
<line x1="654" y1="1" x2="654" y2="108" style="stroke:#ddd;stroke-width:2" />
<line x1="763" y1="1" x2="763" y2="108" style="stroke:#ddd;stroke-width:2" />
<line x1="872" y1="1" x2="872" y2="108" style="stroke:#ddd;stroke-width:2" />
<line x1="981" y1="1" x2="981" y2="108" style="stroke:#ddd;stroke-width:2" />
<line x1="1090" y1="1" x2="1090" y2="108" style="stroke:#ddd;stroke-width:2" />
<line x1="1199" y1="1" x2="1199" y2="108" style="stroke:#ddd;stroke-width:2" />
<line x1="1308" y1="1" x2="1308" y2="108" style="stroke:#ddd;stroke-width:2" />
<line x1="1417" y1="1" x2="1417" y2="108" style="stroke:#ddd;stroke-width:2" />
<line x1="1526" y1="1" x2="1526" y2="108" style="stroke:#ddd;stroke-width:2" />
<line x1="1635" y1="1" x2="1635" y2="108" style="stroke:#ddd;stroke-width:2" />
<line x1="1744" y1="1" x2="1744" y2="108" style="stroke:#ddd;stroke-width:2" />
<line x1="1853" y1="1" x2="1853" y2="108" style="stroke:#ddd;stroke-width:2" />
<line x1="1962" y1="1" x2="1962" y2="108" style="stroke:#ddd;stroke-width:2" />
<line x1="2071" y1="1" x2="2071" y2="108" style="stroke:#ddd;stroke-width:2" />
<line x1="2180" y1="1" x2="2180" y2="108" style="stroke:#ddd;stroke-width:2" />
<line x1="1" y1="54" x2="2288" y2="54" style="stroke:#ddd;stroke-width:2;stroke-dasharray:3 3" />
<line x1="55" y1="1" x2="55" y2="108" style="stroke:#ddd;stroke-width:2;stroke-dasharray:3 3" />
<line x1="164" y1="1" x2="164" y2="108" style="stroke:#ddd;stroke-width:2;stroke-dasharray:3 3" />
<line x1="273" y1="1" x2="273" y2="108" style="stroke:#ddd;stroke-width:2;stroke-dasharray:3 3" />
<line x1="382" y1="1" x2="382" y2="108" style="stroke:#ddd;stroke-width:2;stroke-dasharray:3 3" />
<line x1="491" y1="1" x2="491" y2="108" style="stroke:#ddd;stroke-width:2;stroke-dasharray:3 3" />
<line x1="600" y1="1" x2="600" y2="108" style="stroke:#ddd;stroke-width:2;stroke-dasharray:3 3" />
<line x1="709" y1="1" x2="709" y2="108" style="stroke:#ddd;stroke-width:2;stroke-dasharray:3 3" />
<line x1="818" y1="1" x2="818" y2="108" style="stroke:#ddd;stroke-width:2;stroke-dasharray:3 3" />
<line x1="927" y1="1" x2="927" y2="108" style="stroke:#ddd;stroke-width:2;stroke-dasharray:3 3" />
<line x1="1036" y1="1" x2="1036" y2="108" style="stroke:#ddd;stroke-width:2;stroke-dasharray:3 3" />
<line x1="1145" y1="1" x2="1145" y2="108" style="stroke:#ddd;stroke-width:2;stroke-dasharray:3 3" />
<line x1="1254" y1="1" x2="1254" y2="108" style="stroke:#ddd;stroke-width:2;stroke-dasharray:3 3" />
<line x1="1363" y1="1" x2="1363" y2="108" style="stroke:#ddd;stroke-width:2;stroke-dasharray:3 3" />
<line x1="1472" y1="1" x2="1472" y2="108" style="stroke:#ddd;stroke-width:2;stroke-dasharray:3 3" />
<line x1="1581" y1="1" x2="1581" y2="108" style="stroke:#ddd;stroke-width:2;stroke-dasharray:3 3" />
<line x1="1690" y1="1" x2="1690" y2="108" style="stroke:#ddd;stroke-width:2;stroke-dasharray:3 3" />
<line x1="1799" y1="1" x2="1799" y2="108" style="stroke:#ddd;stroke-width:2;stroke-dasharray:3 3" />
<line x1="1908" y1="1" x2="1908" y2="108" style="stroke:#ddd;stroke-width:2;stroke-dasharray:3 3" />
<line x1="2017" y1="1" x2="2017" y2="108" style="stroke:#ddd;stroke-width:2;stroke-dasharray:3 3" />
<line x1="2126" y1="1" x2="2126" y2="108" style="stroke:#ddd;stroke-width:2;stroke-dasharray:3 3" />
<line x1="2235" y1="1" x2="2235" y2="108" style="stroke:#ddd;stroke-width:2;stroke-dasharray:3 3" />
<path d="M31.11,12 c 0.03,0.34 0.1,0.97 -0.05,1.35 -1.88,4.74 -4.66,9.08 -9.56,12.9" style="fill:none;stroke:black;stroke-width:3" />
<circle cx="31.11" cy="12.0" r="5" stroke-width="0" fill="#FF2A00" opacity="0.7" />
<path d="M140.11,12 c 0.03,0.34 0.1,0.97 -0.05,1.35 -1.88,4.74 -4.66,9.08 -9.56,12.9" style="fill:none;stroke:#999;stroke-width:3" />
<path d="M123.33,28.12 c 0.23,0.54 0.24,0.91 0.37,1.57 1.04,5.5 2.33,15.74 2.95,25.88" style="fill:none;stroke:black;stroke-width:3" />
<circle cx="123.33" cy="28.12" r="5" stroke-width="0" fill="#FF2A00" opacity="0.7" />
<path d="M249.11,12 c 0.03,0.34 0.1,0.97 -0.05,1.35 -1.88,4.74 -4.66,9.08 -9.56,12.9" style="fill:none;stroke:#999;stroke-width:3" />
<path d="M232.32999999999998,28.12 c 0.23,0.54 0.24,0.91 0.37,1.57 1.04,5.5 2.33,15.74 2.95,25.88" style="fill:none;stroke:#999;stroke-width:3" />
<path d="M233.43,29.45 C241.73,28.89,256.0,25.96,262.2,25.42 46.48,25.22 47.41,27 47.16,29.29 46.59,34.67 45.5,46 44.14,53.63" style="fill:none;stroke:black;stroke-width:3" />
<circle cx="233.43" cy="29.45" r="5" stroke-width="0" fill="#FF2A00" opacity="0.7" />
<path d="M358.11,12 c 0.03,0.34 0.1,0.97 -0.05,1.35 -1.88,4.74 -4.66,9.08 -9.56,12.9" style="fill:none;stroke:#999;stroke-width:3" />
<path d="M341.33,28.12 c 0.23,0.54 0.24,0.91 0.37,1.57 1.04,5.5 2.33,15.74 2.95,25.88" style="fill:none;stroke:#999;stroke-width:3" />
<path d="M342.43,29.45 C350.73,28.89,365.0,25.96,371.2,25.42 46.48,25.22 47.41,27 47.16,29.29 46.59,34.67 45.5,46 44.14,53.63" style="fill:none;stroke:#999;stroke-width:3" />
<path d="M356.2,28.9 c 0.69,0.69 1.25,1.64 1.26,2.75 0.03,5.51 0.12,16.88 0.12,20" style="fill:none;stroke:black;stroke-width:3" />
<circle cx="356.2" cy="28.9" r="5" stroke-width="0" fill="#FF2A00" opacity="0.7" />
<path d="M467.11,12 c 0.03,0.34 0.1,0.97 -0.05,1.35 -1.88,4.74 -4.66,9.08 -9.56,12.9" style="fill:none;stroke:#999;stroke-width:3" />
<path d="M450.33,28.12 c 0.23,0.54 0.24,0.91 0.37,1.57 1.04,5.5 2.33,15.74 2.95,25.88" style="fill:none;stroke:#999;stroke-width:3" />
<path d="M451.43,29.45 C459.73,28.89,474.0,25.96,480.2,25.42 46.48,25.22 47.41,27 47.16,29.29 46.59,34.67 45.5,46 44.14,53.63" style="fill:none;stroke:#999;stroke-width:3" />
<path d="M465.2,28.9 c 0.69,0.69 1.25,1.64 1.26,2.75 0.03,5.51 0.12,16.88 0.12,20" style="fill:none;stroke:#999;stroke-width:3" />
<path d="M452.91,41.07 C455.61,40.8,472.25,38.5,481.64,37.7" style="fill:none;stroke:black;stroke-width:3" />
<circle cx="452.91" cy="41.07" r="5" stroke-width="0" fill="#FF2A00" opacity="0.7" />
<path d="M576.11,12 c 0.03,0.34 0.1,0.97 -0.05,1.35 -1.88,4.74 -4.66,9.08 -9.56,12.9" style="fill:none;stroke:#999;stroke-width:3" />
<path d="M559.3299999999999,28.12 c 0.23,0.54 0.24,0.91 0.37,1.57 1.04,5.5 2.33,15.74 2.95,25.88" style="fill:none;stroke:#999;stroke-width:3" />
<path d="M560.4300000000001,29.45 C568.73,28.89,583.0,25.96,589.2,25.42 46.48,25.22 47.41,27 47.16,29.29 46.59,34.67 45.5,46 44.14,53.63" style="fill:none;stroke:#999;stroke-width:3" />
<path d="M574.2,28.9 c 0.69,0.69 1.25,1.64 1.26,2.75 0.03,5.51 0.12,16.88 0.12,20" style="fill:none;stroke:#999;stroke-width:3" />
<path d="M561.9100000000001,41.07 C564.61,40.8,581.25,38.5,590.64,37.7" style="fill:none;stroke:#999;stroke-width:3" />
<path d="M563.07,54.14 C573.25,52.75,579.0,52.25,588.71,51.26" style="fill:none;stroke:black;stroke-width:3" />
<circle cx="563.07" cy="54.14" r="5" stroke-width="0" fill="#FF2A00" opacity="0.7" />
<path d="M685.11,12 c 0.03,0.34 0.1,0.97 -0.05,1.35 -1.88,4.74 -4.66,9.08 -9.56,12.9" style="fill:none;stroke:#999;stroke-width:3" />
<path d="M668.3299999999999,28.12 c 0.23,0.54 0.24,0.91 0.37,1.57 1.04,5.5 2.33,15.74 2.95,25.88" style="fill:none;stroke:#999;stroke-width:3" />
<path d="M669.4300000000001,29.45 C677.73,28.89,692.0,25.96,698.2,25.42 46.48,25.22 47.41,27 47.16,29.29 46.59,34.67 45.5,46 44.14,53.63" style="fill:none;stroke:#999;stroke-width:3" />
<path d="M683.2,28.9 c 0.69,0.69 1.25,1.64 1.26,2.75 0.03,5.51 0.12,16.88 0.12,20" style="fill:none;stroke:#999;stroke-width:3" />
<path d="M670.9100000000001,41.07 C673.61,40.8,690.25,38.5,699.64,37.7" style="fill:none;stroke:#999;stroke-width:3" />
<path d="M672.07,54.14 C682.25,52.75,688.0,52.25,697.71,51.26" style="fill:none;stroke:#999;stroke-width:3" />
<path d="M677.62,58.75 c 0.17,0.67 0.47,1.96 0.25,3.05 C676.0,71,673.0,83.25,665.0,92.5" style="fill:none;stroke:black;stroke-width:3" />
<circle cx="677.62" cy="58.75" r="5" stroke-width="0" fill="#FF2A00" opacity="0.7" />
<path d="M794.11,12 c 0.03,0.34 0.1,0.97 -0.05,1.35 -1.88,4.74 -4.66,9.08 -9.56,12.9" style="fill:none;stroke:#999;stroke-width:3" />
<path d="M777.3299999999999,28.12 c 0.23,0.54 0.24,0.91 0.37,1.57 1.04,5.5 2.33,15.74 2.95,25.88" style="fill:none;stroke:#999;stroke-width:3" />
<path d="M778.4300000000001,29.45 C786.73,28.89,801.0,25.96,807.2,25.42 46.48,25.22 47.41,27 47.16,29.29 46.59,34.67 45.5,46 44.14,53.63" style="fill:none;stroke:#999;stroke-width:3" />
<path d="M792.2,28.9 c 0.69,0.69 1.25,1.64 1.26,2.75 0.03,5.51 0.12,16.88 0.12,20" style="fill:none;stroke:#999;stroke-width:3" />
<path d="M779.9100000000001,41.07 C782.61,40.8,799.25,38.5,808.64,37.7" style="fill:none;stroke:#999;stroke-width:3" />
<path d="M781.07,54.14 C791.25,52.75,797.0,52.25,806.71,51.26" style="fill:none;stroke:#999;stroke-width:3" />
<path d="M786.62,58.75 c 0.17,0.67 0.47,1.96 0.25,3.05 C785.0,71,782.0,83.25,774.0,92.5" style="fill:none;stroke:#999;stroke-width:3" />
<path d="M796.49,54.87 c 0.74,1.19 1.33,2.59 1.38,4.43 0.2,8.19 -0.42,18.64 -0.42,24.2 0,11 1.56,13.03 31.97,13.03 27.34,0 28.84,-1.53 28.84,-10.62" style="fill:none;stroke:black;stroke-width:3" />
<circle cx="796.49" cy="54.87" r="5" stroke-width="0" fill="#FF2A00" opacity="0.7" />
<path d="M903.11,12 c 0.03,0.34 0.1,0.97 -0.05,1.35 -1.88,4.74 -4.66,9.08 -9.56,12.9" style="fill:none;stroke:#999;stroke-width:3" />
<path d="M886.3299999999999,28.12 c 0.23,0.54 0.24,0.91 0.37,1.57 1.04,5.5 2.33,15.74 2.95,25.88" style="fill:none;stroke:#999;stroke-width:3" />
<path d="M887.4300000000001,29.45 C895.73,28.89,910.0,25.96,916.2,25.42 46.48,25.22 47.41,27 47.16,29.29 46.59,34.67 45.5,46 44.14,53.63" style="fill:none;stroke:#999;stroke-width:3" />
<path d="M901.2,28.9 c 0.69,0.69 1.25,1.64 1.26,2.75 0.03,5.51 0.12,16.88 0.12,20" style="fill:none;stroke:#999;stroke-width:3" />
<path d="M888.9100000000001,41.07 C891.61,40.8,908.25,38.5,917.64,37.7" style="fill:none;stroke:#999;stroke-width:3" />
<path d="M890.07,54.14 C900.25,52.75,906.0,52.25,915.71,51.26" style="fill:none;stroke:#999;stroke-width:3" />
<path d="M895.62,58.75 c 0.17,0.67 0.47,1.96 0.25,3.05 C894.0,71,891.0,83.25,883.0,92.5" style="fill:none;stroke:#999;stroke-width:3" />
<path d="M905.49,54.87 c 0.74,1.19 1.33,2.59 1.38,4.43 0.2,8.19 -0.42,18.64 -0.42,24.2 0,11 1.56,13.03 31.97,13.03 27.34,0 28.84,-1.53 28.84,-10.62" style="fill:none;stroke:#999;stroke-width:3" />
<path d="M917.44,60.72 c 0.21,0.35 0.06,1.93 -0.07,2.38 -1.55,5.71 -3.12,10.39 -6.06,16.54 -0.67,1.41 -0.87,1.7 0.42,1.27 4.53,-1.51 6.66,-2.82 11.05,-4.41" style="fill:none;stroke:black;stroke-width:3" />
<circle cx="917.44" cy="60.72" r="5" stroke-width="0" fill="#FF2A00" opacity="0.7" />
<path d="M1012.11,12 c 0.03,0.34 0.1,0.97 -0.05,1.35 -1.88,4.74 -4.66,9.08 -9.56,12.9" style="fill:none;stroke:#999;stroke-width:3" />
<path d="M995.3299999999999,28.12 c 0.23,0.54 0.24,0.91 0.37,1.57 1.04,5.5 2.33,15.74 2.95,25.88" style="fill:none;stroke:#999;stroke-width:3" />
<path d="M996.4300000000001,29.45 C1004.73,28.89,1019.0,25.96,1025.2,25.42 46.48,25.22 47.41,27 47.16,29.29 46.59,34.67 45.5,46 44.14,53.63" style="fill:none;stroke:#999;stroke-width:3" />
<path d="M1010.2,28.9 c 0.69,0.69 1.25,1.64 1.26,2.75 0.03,5.51 0.12,16.88 0.12,20" style="fill:none;stroke:#999;stroke-width:3" />
<path d="M997.9100000000001,41.07 C1000.61,40.8,1017.25,38.5,1026.6399999999999,37.7" style="fill:none;stroke:#999;stroke-width:3" />
<path d="M999.07,54.14 C1009.25,52.75,1015.0,52.25,1024.71,51.26" style="fill:none;stroke:#999;stroke-width:3" />
<path d="M1004.62,58.75 c 0.17,0.67 0.47,1.96 0.25,3.05 C1003.0,71,1000.0,83.25,992.0,92.5" style="fill:none;stroke:#999;stroke-width:3" />
<path d="M1014.49,54.87 c 0.74,1.19 1.33,2.59 1.38,4.43 0.2,8.19 -0.42,18.64 -0.42,24.2 0,11 1.56,13.03 31.97,13.03 27.34,0 28.84,-1.53 28.84,-10.62" style="fill:none;stroke:#999;stroke-width:3" />
<path d="M1026.44,60.72 c 0.21,0.35 0.06,1.93 -0.07,2.38 -1.55,5.71 -3.12,10.39 -6.06,16.54 -0.67,1.41 -0.87,1.7 0.42,1.27 4.53,-1.51 6.66,-2.82 11.05,-4.41" style="fill:none;stroke:#999;stroke-width:3" />
<path d="M1029.85,71.54 c 1.01,1.37 3.24,6.8 3.49,8.93" style="fill:none;stroke:black;stroke-width:3" />
<circle cx="1029.85" cy="71.54" r="5" stroke-width="0" fill="#FF2A00" opacity="0.7" />
<path d="M1121.1100000000001,12 c 0.03,0.34 0.1,0.97 -0.05,1.35 -1.88,4.74 -4.66,9.08 -9.56,12.9" style="fill:none;stroke:#999;stroke-width:3" />
<path d="M1104.33,28.12 c 0.23,0.54 0.24,0.91 0.37,1.57 1.04,5.5 2.33,15.74 2.95,25.88" style="fill:none;stroke:#999;stroke-width:3" />
<path d="M1105.43,29.45 C1113.73,28.89,1128.0,25.96,1134.2,25.42 46.48,25.22 47.41,27 47.16,29.29 46.59,34.67 45.5,46 44.14,53.63" style="fill:none;stroke:#999;stroke-width:3" />
<path d="M1119.2,28.9 c 0.69,0.69 1.25,1.64 1.26,2.75 0.03,5.51 0.12,16.88 0.12,20" style="fill:none;stroke:#999;stroke-width:3" />
<path d="M1106.91,41.07 C1109.6100000000001,40.8,1126.25,38.5,1135.6399999999999,37.7" style="fill:none;stroke:#999;stroke-width:3" />
<path d="M1108.0700000000002,54.14 C1118.25,52.75,1124.0,52.25,1133.71,51.26" style="fill:none;stroke:#999;stroke-width:3" />
<path d="M1113.62,58.75 c 0.17,0.67 0.47,1.96 0.25,3.05 C1112.0,71,1109.0,83.25,1101.0,92.5" style="fill:none;stroke:#999;stroke-width:3" />
<path d="M1123.49,54.87 c 0.74,1.19 1.33,2.59 1.38,4.43 0.2,8.19 -0.42,18.64 -0.42,24.2 0,11 1.56,13.03 31.97,13.03 27.34,0 28.84,-1.53 28.84,-10.62" style="fill:none;stroke:#999;stroke-width:3" />
<path d="M1135.44,60.72 c 0.21,0.35 0.06,1.93 -0.07,2.38 -1.55,5.71 -3.12,10.39 -6.06,16.54 -0.67,1.41 -0.87,1.7 0.42,1.27 4.53,-1.51 6.66,-2.82 11.05,-4.41" style="fill:none;stroke:#999;stroke-width:3" />
<path d="M1138.85,71.54 c 1.01,1.37 3.24,6.8 3.49,8.93" style="fill:none;stroke:#999;stroke-width:3" />
<path d="M1161.56,11.5 c 0.56,0.27 1.48,1.33 1.48,1.87 0,2 -0.18,6.23 -0.07,7.92" style="fill:none;stroke:black;stroke-width:3" />
<circle cx="1161.56" cy="11.5" r="5" stroke-width="0" fill="#FF2A00" opacity="0.7" />
<path d="M1230.1100000000001,12 c 0.03,0.34 0.1,0.97 -0.05,1.35 -1.88,4.74 -4.66,9.08 -9.56,12.9" style="fill:none;stroke:#999;stroke-width:3" />
<path d="M1213.33,28.12 c 0.23,0.54 0.24,0.91 0.37,1.57 1.04,5.5 2.33,15.74 2.95,25.88" style="fill:none;stroke:#999;stroke-width:3" />
<path d="M1214.43,29.45 C1222.73,28.89,1237.0,25.96,1243.2,25.42 46.48,25.22 47.41,27 47.16,29.29 46.59,34.67 45.5,46 44.14,53.63" style="fill:none;stroke:#999;stroke-width:3" />
<path d="M1228.2,28.9 c 0.69,0.69 1.25,1.64 1.26,2.75 0.03,5.51 0.12,16.88 0.12,20" style="fill:none;stroke:#999;stroke-width:3" />
<path d="M1215.91,41.07 C1218.6100000000001,40.8,1235.25,38.5,1244.6399999999999,37.7" style="fill:none;stroke:#999;stroke-width:3" />
<path d="M1217.0700000000002,54.14 C1227.25,52.75,1233.0,52.25,1242.71,51.26" style="fill:none;stroke:#999;stroke-width:3" />
<path d="M1222.62,58.75 c 0.17,0.67 0.47,1.96 0.25,3.05 C1221.0,71,1218.0,83.25,1210.0,92.5" style="fill:none;stroke:#999;stroke-width:3" />
<path d="M1232.49,54.87 c 0.74,1.19 1.33,2.59 1.38,4.43 0.2,8.19 -0.42,18.64 -0.42,24.2 0,11 1.56,13.03 31.97,13.03 27.34,0 28.84,-1.53 28.84,-10.62" style="fill:none;stroke:#999;stroke-width:3" />
<path d="M1244.44,60.72 c 0.21,0.35 0.06,1.93 -0.07,2.38 -1.55,5.71 -3.12,10.39 -6.06,16.54 -0.67,1.41 -0.87,1.7 0.42,1.27 4.53,-1.51 6.66,-2.82 11.05,-4.41" style="fill:none;stroke:#999;stroke-width:3" />
<path d="M1247.85,71.54 c 1.01,1.37 3.24,6.8 3.49,8.93" style="fill:none;stroke:#999;stroke-width:3" />
<path d="M1270.56,11.5 c 0.56,0.27 1.48,1.33 1.48,1.87 0,2 -0.18,6.23 -0.07,7.92" style="fill:none;stroke:#999;stroke-width:3" />
<path d="M1254.17,23.21 c 1.22,0.22 2.31,0.46 3.71,0.3 8.38,-0.91 21.78,-2.99 31.55,-3.43 1.44,-0.06 2.17,0.03 3.24,0.39" style="fill:none;stroke:black;stroke-width:3" />
<circle cx="1254.17" cy="23.21" r="5" stroke-width="0" fill="#FF2A00" opacity="0.7" />
<path d="M1339.1100000000001,12 c 0.03,0.34 0.1,0.97 -0.05,1.35 -1.88,4.74 -4.66,9.08 -9.56,12.9" style="fill:none;stroke:#999;stroke-width:3" />
<path d="M1322.33,28.12 c 0.23,0.54 0.24,0.91 0.37,1.57 1.04,5.5 2.33,15.74 2.95,25.88" style="fill:none;stroke:#999;stroke-width:3" />
<path d="M1323.43,29.45 C1331.73,28.89,1346.0,25.96,1352.2,25.42 46.48,25.22 47.41,27 47.16,29.29 46.59,34.67 45.5,46 44.14,53.63" style="fill:none;stroke:#999;stroke-width:3" />
<path d="M1337.2,28.9 c 0.69,0.69 1.25,1.64 1.26,2.75 0.03,5.51 0.12,16.88 0.12,20" style="fill:none;stroke:#999;stroke-width:3" />
<path d="M1324.91,41.07 C1327.6100000000001,40.8,1344.25,38.5,1353.6399999999999,37.7" style="fill:none;stroke:#999;stroke-width:3" />
<path d="M1326.0700000000002,54.14 C1336.25,52.75,1342.0,52.25,1351.71,51.26" style="fill:none;stroke:#999;stroke-width:3" />
<path d="M1331.62,58.75 c 0.17,0.67 0.47,1.96 0.25,3.05 C1330.0,71,1327.0,83.25,1319.0,92.5" style="fill:none;stroke:#999;stroke-width:3" />
<path d="M1341.49,54.87 c 0.74,1.19 1.33,2.59 1.38,4.43 0.2,8.19 -0.42,18.64 -0.42,24.2 0,11 1.56,13.03 31.97,13.03 27.34,0 28.84,-1.53 28.84,-10.62" style="fill:none;stroke:#999;stroke-width:3" />
<path d="M1353.44,60.72 c 0.21,0.35 0.06,1.93 -0.07,2.38 -1.55,5.71 -3.12,10.39 -6.06,16.54 -0.67,1.41 -0.87,1.7 0.42,1.27 4.53,-1.51 6.66,-2.82 11.05,-4.41" style="fill:none;stroke:#999;stroke-width:3" />
<path d="M1356.85,71.54 c 1.01,1.37 3.24,6.8 3.49,8.93" style="fill:none;stroke:#999;stroke-width:3" />
<path d="M1379.56,11.5 c 0.56,0.27 1.48,1.33 1.48,1.87 0,2 -0.18,6.23 -0.07,7.92" style="fill:none;stroke:#999;stroke-width:3" />
<path d="M1363.17,23.21 c 1.22,0.22 2.31,0.46 3.71,0.3 8.38,-0.91 21.78,-2.99 31.55,-3.43 1.44,-0.06 2.17,0.03 3.24,0.39" style="fill:none;stroke:#999;stroke-width:3" />
<path d="M1387.27,25.86 c 0.24,0.36 0.49,0.65 0.12,1.29 -3.27,5.72 -8.13,10.5 -15.16,13.5" style="fill:none;stroke:black;stroke-width:3" />
<circle cx="1387.27" cy="25.86" r="5" stroke-width="0" fill="#FF2A00" opacity="0.7" />
<path d="M1448.1100000000001,12 c 0.03,0.34 0.1,0.97 -0.05,1.35 -1.88,4.74 -4.66,9.08 -9.56,12.9" style="fill:none;stroke:#999;stroke-width:3" />
<path d="M1431.33,28.12 c 0.23,0.54 0.24,0.91 0.37,1.57 1.04,5.5 2.33,15.74 2.95,25.88" style="fill:none;stroke:#999;stroke-width:3" />
<path d="M1432.43,29.45 C1440.73,28.89,1455.0,25.96,1461.2,25.42 46.48,25.22 47.41,27 47.16,29.29 46.59,34.67 45.5,46 44.14,53.63" style="fill:none;stroke:#999;stroke-width:3" />
<path d="M1446.2,28.9 c 0.69,0.69 1.25,1.64 1.26,2.75 0.03,5.51 0.12,16.88 0.12,20" style="fill:none;stroke:#999;stroke-width:3" />
<path d="M1433.91,41.07 C1436.6100000000001,40.8,1453.25,38.5,1462.6399999999999,37.7" style="fill:none;stroke:#999;stroke-width:3" />
<path d="M1435.0700000000002,54.14 C1445.25,52.75,1451.0,52.25,1460.71,51.26" style="fill:none;stroke:#999;stroke-width:3" />
<path d="M1440.62,58.75 c 0.17,0.67 0.47,1.96 0.25,3.05 C1439.0,71,1436.0,83.25,1428.0,92.5" style="fill:none;stroke:#999;stroke-width:3" />
<path d="M1450.49,54.87 c 0.74,1.19 1.33,2.59 1.38,4.43 0.2,8.19 -0.42,18.64 -0.42,24.2 0,11 1.56,13.03 31.97,13.03 27.34,0 28.84,-1.53 28.84,-10.62" style="fill:none;stroke:#999;stroke-width:3" />
<path d="M1462.44,60.72 c 0.21,0.35 0.06,1.93 -0.07,2.38 -1.55,5.71 -3.12,10.39 -6.06,16.54 -0.67,1.41 -0.87,1.7 0.42,1.27 4.53,-1.51 6.66,-2.82 11.05,-4.41" style="fill:none;stroke:#999;stroke-width:3" />
<path d="M1465.85,71.54 c 1.01,1.37 3.24,6.8 3.49,8.93" style="fill:none;stroke:#999;stroke-width:3" />
<path d="M1488.56,11.5 c 0.56,0.27 1.48,1.33 1.48,1.87 0,2 -0.18,6.23 -0.07,7.92" style="fill:none;stroke:#999;stroke-width:3" />
<path d="M1472.17,23.21 c 1.22,0.22 2.31,0.46 3.71,0.3 8.38,-0.91 21.78,-2.99 31.55,-3.43 1.44,-0.06 2.17,0.03 3.24,0.39" style="fill:none;stroke:#999;stroke-width:3" />
<path d="M1496.27,25.86 c 0.24,0.36 0.49,0.65 0.12,1.29 -3.27,5.72 -8.13,10.5 -15.16,13.5" style="fill:none;stroke:#999;stroke-width:3" />
<path d="M1482.53,27.3 c 5.12,1.88 12.5,7.99 15.17,12.47" style="fill:none;stroke:black;stroke-width:3" />
<circle cx="1482.53" cy="27.3" r="5" stroke-width="0" fill="#FF2A00" opacity="0.7" />
<path d="M1557.1100000000001,12 c 0.03,0.34 0.1,0.97 -0.05,1.35 -1.88,4.74 -4.66,9.08 -9.56,12.9" style="fill:none;stroke:#999;stroke-width:3" />
<path d="M1540.33,28.12 c 0.23,0.54 0.24,0.91 0.37,1.57 1.04,5.5 2.33,15.74 2.95,25.88" style="fill:none;stroke:#999;stroke-width:3" />
<path d="M1541.43,29.45 C1549.73,28.89,1564.0,25.96,1570.2,25.42 46.48,25.22 47.41,27 47.16,29.29 46.59,34.67 45.5,46 44.14,53.63" style="fill:none;stroke:#999;stroke-width:3" />
<path d="M1555.2,28.9 c 0.69,0.69 1.25,1.64 1.26,2.75 0.03,5.51 0.12,16.88 0.12,20" style="fill:none;stroke:#999;stroke-width:3" />
<path d="M1542.91,41.07 C1545.6100000000001,40.8,1562.25,38.5,1571.6399999999999,37.7" style="fill:none;stroke:#999;stroke-width:3" />
<path d="M1544.0700000000002,54.14 C1554.25,52.75,1560.0,52.25,1569.71,51.26" style="fill:none;stroke:#999;stroke-width:3" />
<path d="M1549.62,58.75 c 0.17,0.67 0.47,1.96 0.25,3.05 C1548.0,71,1545.0,83.25,1537.0,92.5" style="fill:none;stroke:#999;stroke-width:3" />
<path d="M1559.49,54.87 c 0.74,1.19 1.33,2.59 1.38,4.43 0.2,8.19 -0.42,18.64 -0.42,24.2 0,11 1.56,13.03 31.97,13.03 27.34,0 28.84,-1.53 28.84,-10.62" style="fill:none;stroke:#999;stroke-width:3" />
<path d="M1571.44,60.72 c 0.21,0.35 0.06,1.93 -0.07,2.38 -1.55,5.71 -3.12,10.39 -6.06,16.54 -0.67,1.41 -0.87,1.7 0.42,1.27 4.53,-1.51 6.66,-2.82 11.05,-4.41" style="fill:none;stroke:#999;stroke-width:3" />
<path d="M1574.85,71.54 c 1.01,1.37 3.24,6.8 3.49,8.93" style="fill:none;stroke:#999;stroke-width:3" />
<path d="M1597.56,11.5 c 0.56,0.27 1.48,1.33 1.48,1.87 0,2 -0.18,6.23 -0.07,7.92" style="fill:none;stroke:#999;stroke-width:3" />
<path d="M1581.17,23.21 c 1.22,0.22 2.31,0.46 3.71,0.3 8.38,-0.91 21.78,-2.99 31.55,-3.43 1.44,-0.06 2.17,0.03 3.24,0.39" style="fill:none;stroke:#999;stroke-width:3" />
<path d="M1605.27,25.86 c 0.24,0.36 0.49,0.65 0.12,1.29 -3.27,5.72 -8.13,10.5 -15.16,13.5" style="fill:none;stroke:#999;stroke-width:3" />
<path d="M1591.53,27.3 c 5.12,1.88 12.5,7.99 15.17,12.47" style="fill:none;stroke:#999;stroke-width:3" />
<path d="M1584.65,28.83 c 0.32,0.17 0.98,1.24 1.05,1.57 0.46,2.41 -0.41,14.38 -0.44,15.16 -0.03,0.78 0.69,1.21 1.31,1.12 9.27,-1.4 23.28,-2.66 26.56,-2.83" style="fill:none;stroke:black;stroke-width:3" />
<circle cx="1584.65" cy="28.83" r="5" stroke-width="0" fill="#FF2A00" opacity="0.7" />
<path d="M1666.1100000000001,12 c 0.03,0.34 0.1,0.97 -0.05,1.35 -1.88,4.74 -4.66,9.08 -9.56,12.9" style="fill:none;stroke:#999;stroke-width:3" />
<path d="M1649.33,28.12 c 0.23,0.54 0.24,0.91 0.37,1.57 1.04,5.5 2.33,15.74 2.95,25.88" style="fill:none;stroke:#999;stroke-width:3" />
<path d="M1650.43,29.45 C1658.73,28.89,1673.0,25.96,1679.2,25.42 46.48,25.22 47.41,27 47.16,29.29 46.59,34.67 45.5,46 44.14,53.63" style="fill:none;stroke:#999;stroke-width:3" />
<path d="M1664.2,28.9 c 0.69,0.69 1.25,1.64 1.26,2.75 0.03,5.51 0.12,16.88 0.12,20" style="fill:none;stroke:#999;stroke-width:3" />
<path d="M1651.91,41.07 C1654.6100000000001,40.8,1671.25,38.5,1680.6399999999999,37.7" style="fill:none;stroke:#999;stroke-width:3" />
<path d="M1653.0700000000002,54.14 C1663.25,52.75,1669.0,52.25,1678.71,51.26" style="fill:none;stroke:#999;stroke-width:3" />
<path d="M1658.62,58.75 c 0.17,0.67 0.47,1.96 0.25,3.05 C1657.0,71,1654.0,83.25,1646.0,92.5" style="fill:none;stroke:#999;stroke-width:3" />
<path d="M1668.49,54.87 c 0.74,1.19 1.33,2.59 1.38,4.43 0.2,8.19 -0.42,18.64 -0.42,24.2 0,11 1.56,13.03 31.97,13.03 27.34,0 28.84,-1.53 28.84,-10.62" style="fill:none;stroke:#999;stroke-width:3" />
<path d="M1680.44,60.72 c 0.21,0.35 0.06,1.93 -0.07,2.38 -1.55,5.71 -3.12,10.39 -6.06,16.54 -0.67,1.41 -0.87,1.7 0.42,1.27 4.53,-1.51 6.66,-2.82 11.05,-4.41" style="fill:none;stroke:#999;stroke-width:3" />
<path d="M1683.85,71.54 c 1.01,1.37 3.24,6.8 3.49,8.93" style="fill:none;stroke:#999;stroke-width:3" />
<path d="M1706.56,11.5 c 0.56,0.27 1.48,1.33 1.48,1.87 0,2 -0.18,6.23 -0.07,7.92" style="fill:none;stroke:#999;stroke-width:3" />
<path d="M1690.17,23.21 c 1.22,0.22 2.31,0.46 3.71,0.3 8.38,-0.91 21.78,-2.99 31.55,-3.43 1.44,-0.06 2.17,0.03 3.24,0.39" style="fill:none;stroke:#999;stroke-width:3" />
<path d="M1714.27,25.86 c 0.24,0.36 0.49,0.65 0.12,1.29 -3.27,5.72 -8.13,10.5 -15.16,13.5" style="fill:none;stroke:#999;stroke-width:3" />
<path d="M1700.53,27.3 c 5.12,1.88 12.5,7.99 15.17,12.47" style="fill:none;stroke:#999;stroke-width:3" />
<path d="M1693.65,28.83 c 0.32,0.17 0.98,1.24 1.05,1.57 0.46,2.41 -0.41,14.38 -0.44,15.16 -0.03,0.78 0.69,1.21 1.31,1.12 9.27,-1.4 23.28,-2.66 26.56,-2.83" style="fill:none;stroke:#999;stroke-width:3" />
<path d="M1722.91,25.63 c 0.32,0.17 0.98,1.24 1.05,1.57 0.06,0.33 -0.62,12.02 -0.9,18.52" style="fill:none;stroke:black;stroke-width:3" />
<circle cx="1722.91" cy="25.63" r="5" stroke-width="0" fill="#FF2A00" opacity="0.7" />
<path d="M1775.1100000000001,12 c 0.03,0.34 0.1,0.97 -0.05,1.35 -1.88,4.74 -4.66,9.08 -9.56,12.9" style="fill:none;stroke:#999;stroke-width:3" />
<path d="M1758.33,28.12 c 0.23,0.54 0.24,0.91 0.37,1.57 1.04,5.5 2.33,15.74 2.95,25.88" style="fill:none;stroke:#999;stroke-width:3" />
<path d="M1759.43,29.45 C1767.73,28.89,1782.0,25.96,1788.2,25.42 46.48,25.22 47.41,27 47.16,29.29 46.59,34.67 45.5,46 44.14,53.63" style="fill:none;stroke:#999;stroke-width:3" />
<path d="M1773.2,28.9 c 0.69,0.69 1.25,1.64 1.26,2.75 0.03,5.51 0.12,16.88 0.12,20" style="fill:none;stroke:#999;stroke-width:3" />
<path d="M1760.91,41.07 C1763.6100000000001,40.8,1780.25,38.5,1789.6399999999999,37.7" style="fill:none;stroke:#999;stroke-width:3" />
<path d="M1762.0700000000002,54.14 C1772.25,52.75,1778.0,52.25,1787.71,51.26" style="fill:none;stroke:#999;stroke-width:3" />
<path d="M1767.62,58.75 c 0.17,0.67 0.47,1.96 0.25,3.05 C1766.0,71,1763.0,83.25,1755.0,92.5" style="fill:none;stroke:#999;stroke-width:3" />
<path d="M1777.49,54.87 c 0.74,1.19 1.33,2.59 1.38,4.43 0.2,8.19 -0.42,18.64 -0.42,24.2 0,11 1.56,13.03 31.97,13.03 27.34,0 28.84,-1.53 28.84,-10.62" style="fill:none;stroke:#999;stroke-width:3" />
<path d="M1789.44,60.72 c 0.21,0.35 0.06,1.93 -0.07,2.38 -1.55,5.71 -3.12,10.39 -6.06,16.54 -0.67,1.41 -0.87,1.7 0.42,1.27 4.53,-1.51 6.66,-2.82 11.05,-4.41" style="fill:none;stroke:#999;stroke-width:3" />
<path d="M1792.85,71.54 c 1.01,1.37 3.24,6.8 3.49,8.93" style="fill:none;stroke:#999;stroke-width:3" />
<path d="M1815.56,11.5 c 0.56,0.27 1.48,1.33 1.48,1.87 0,2 -0.18,6.23 -0.07,7.92" style="fill:none;stroke:#999;stroke-width:3" />
<path d="M1799.17,23.21 c 1.22,0.22 2.31,0.46 3.71,0.3 8.38,-0.91 21.78,-2.99 31.55,-3.43 1.44,-0.06 2.17,0.03 3.24,0.39" style="fill:none;stroke:#999;stroke-width:3" />
<path d="M1823.27,25.86 c 0.24,0.36 0.49,0.65 0.12,1.29 -3.27,5.72 -8.13,10.5 -15.16,13.5" style="fill:none;stroke:#999;stroke-width:3" />
<path d="M1809.53,27.3 c 5.12,1.88 12.5,7.99 15.17,12.47" style="fill:none;stroke:#999;stroke-width:3" />
<path d="M1802.65,28.83 c 0.32,0.17 0.98,1.24 1.05,1.57 0.46,2.41 -0.41,14.38 -0.44,15.16 -0.03,0.78 0.69,1.21 1.31,1.12 9.27,-1.4 23.28,-2.66 26.56,-2.83" style="fill:none;stroke:#999;stroke-width:3" />
<path d="M1831.91,25.63 c 0.32,0.17 0.98,1.24 1.05,1.57 0.06,0.33 -0.62,12.02 -0.9,18.52" style="fill:none;stroke:#999;stroke-width:3" />
<path d="M1800.15,54.52 c 0.57,0.76 0.76,1.96 0.76,3.35 0,7.88 -0.17,26.35 -0.17,28.63" style="fill:none;stroke:black;stroke-width:3" />
<circle cx="1800.15" cy="54.52" r="5" stroke-width="0" fill="#FF2A00" opacity="0.7" />
<path d="M1884.1100000000001,12 c 0.03,0.34 0.1,0.97 -0.05,1.35 -1.88,4.74 -4.66,9.08 -9.56,12.9" style="fill:none;stroke:#999;stroke-width:3" />
<path d="M1867.33,28.12 c 0.23,0.54 0.24,0.91 0.37,1.57 1.04,5.5 2.33,15.74 2.95,25.88" style="fill:none;stroke:#999;stroke-width:3" />
<path d="M1868.43,29.45 C1876.73,28.89,1891.0,25.96,1897.2,25.42 46.48,25.22 47.41,27 47.16,29.29 46.59,34.67 45.5,46 44.14,53.63" style="fill:none;stroke:#999;stroke-width:3" />
<path d="M1882.2,28.9 c 0.69,0.69 1.25,1.64 1.26,2.75 0.03,5.51 0.12,16.88 0.12,20" style="fill:none;stroke:#999;stroke-width:3" />
<path d="M1869.91,41.07 C1872.6100000000001,40.8,1889.25,38.5,1898.6399999999999,37.7" style="fill:none;stroke:#999;stroke-width:3" />
<path d="M1871.0700000000002,54.14 C1881.25,52.75,1887.0,52.25,1896.71,51.26" style="fill:none;stroke:#999;stroke-width:3" />
<path d="M1876.62,58.75 c 0.17,0.67 0.47,1.96 0.25,3.05 C1875.0,71,1872.0,83.25,1864.0,92.5" style="fill:none;stroke:#999;stroke-width:3" />
<path d="M1886.49,54.87 c 0.74,1.19 1.33,2.59 1.38,4.43 0.2,8.19 -0.42,18.64 -0.42,24.2 0,11 1.56,13.03 31.97,13.03 27.34,0 28.84,-1.53 28.84,-10.62" style="fill:none;stroke:#999;stroke-width:3" />
<path d="M1898.44,60.72 c 0.21,0.35 0.06,1.93 -0.07,2.38 -1.55,5.71 -3.12,10.39 -6.06,16.54 -0.67,1.41 -0.87,1.7 0.42,1.27 4.53,-1.51 6.66,-2.82 11.05,-4.41" style="fill:none;stroke:#999;stroke-width:3" />
<path d="M1901.85,71.54 c 1.01,1.37 3.24,6.8 3.49,8.93" style="fill:none;stroke:#999;stroke-width:3" />
<path d="M1924.56,11.5 c 0.56,0.27 1.48,1.33 1.48,1.87 0,2 -0.18,6.23 -0.07,7.92" style="fill:none;stroke:#999;stroke-width:3" />
<path d="M1908.17,23.21 c 1.22,0.22 2.31,0.46 3.71,0.3 8.38,-0.91 21.78,-2.99 31.55,-3.43 1.44,-0.06 2.17,0.03 3.24,0.39" style="fill:none;stroke:#999;stroke-width:3" />
<path d="M1932.27,25.86 c 0.24,0.36 0.49,0.65 0.12,1.29 -3.27,5.72 -8.13,10.5 -15.16,13.5" style="fill:none;stroke:#999;stroke-width:3" />
<path d="M1918.53,27.3 c 5.12,1.88 12.5,7.99 15.17,12.47" style="fill:none;stroke:#999;stroke-width:3" />
<path d="M1911.65,28.83 c 0.32,0.17 0.98,1.24 1.05,1.57 0.46,2.41 -0.41,14.38 -0.44,15.16 -0.03,0.78 0.69,1.21 1.31,1.12 9.27,-1.4 23.28,-2.66 26.56,-2.83" style="fill:none;stroke:#999;stroke-width:3" />
<path d="M1940.91,25.63 c 0.32,0.17 0.98,1.24 1.05,1.57 0.06,0.33 -0.62,12.02 -0.9,18.52" style="fill:none;stroke:#999;stroke-width:3" />
<path d="M1909.15,54.52 c 0.57,0.76 0.76,1.96 0.76,3.35 0,7.88 -0.17,26.35 -0.17,28.63" style="fill:none;stroke:#999;stroke-width:3" />
<path d="M1910.08,56.98 c 5.07,-0.64 29.81,-4.09 30.83,-4.09 1.47,0 2.4,0.48 2.4,1.91 0,3.02 0.19,19.96 0.2,25.31 0.01,7.44 -4.64,3.14 -6,1.63" style="fill:none;stroke:black;stroke-width:3" />
<circle cx="1910.08" cy="56.98" r="5" stroke-width="0" fill="#FF2A00" opacity="0.7" />
<path d="M1993.1100000000001,12 c 0.03,0.34 0.1,0.97 -0.05,1.35 -1.88,4.74 -4.66,9.08 -9.56,12.9" style="fill:none;stroke:#999;stroke-width:3" />
<path d="M1976.33,28.12 c 0.23,0.54 0.24,0.91 0.37,1.57 1.04,5.5 2.33,15.74 2.95,25.88" style="fill:none;stroke:#999;stroke-width:3" />
<path d="M1977.43,29.45 C1985.73,28.89,2000.0,25.96,2006.2,25.42 46.48,25.22 47.41,27 47.16,29.29 46.59,34.67 45.5,46 44.14,53.63" style="fill:none;stroke:#999;stroke-width:3" />
<path d="M1991.2,28.9 c 0.69,0.69 1.25,1.64 1.26,2.75 0.03,5.51 0.12,16.88 0.12,20" style="fill:none;stroke:#999;stroke-width:3" />
<path d="M1978.91,41.07 C1981.6100000000001,40.8,1998.25,38.5,2007.6399999999999,37.7" style="fill:none;stroke:#999;stroke-width:3" />
<path d="M1980.0700000000002,54.14 C1990.25,52.75,1996.0,52.25,2005.71,51.26" style="fill:none;stroke:#999;stroke-width:3" />
<path d="M1985.62,58.75 c 0.17,0.67 0.47,1.96 0.25,3.05 C1984.0,71,1981.0,83.25,1973.0,92.5" style="fill:none;stroke:#999;stroke-width:3" />
<path d="M1995.49,54.87 c 0.74,1.19 1.33,2.59 1.38,4.43 0.2,8.19 -0.42,18.64 -0.42,24.2 0,11 1.56,13.03 31.97,13.03 27.34,0 28.84,-1.53 28.84,-10.62" style="fill:none;stroke:#999;stroke-width:3" />
<path d="M2007.44,60.72 c 0.21,0.35 0.06,1.93 -0.07,2.38 -1.55,5.71 -3.12,10.39 -6.06,16.54 -0.67,1.41 -0.87,1.7 0.42,1.27 4.53,-1.51 6.66,-2.82 11.05,-4.41" style="fill:none;stroke:#999;stroke-width:3" />
<path d="M2010.85,71.54 c 1.01,1.37 3.24,6.8 3.49,8.93" style="fill:none;stroke:#999;stroke-width:3" />
<path d="M2033.56,11.5 c 0.56,0.27 1.48,1.33 1.48,1.87 0,2 -0.18,6.23 -0.07,7.92" style="fill:none;stroke:#999;stroke-width:3" />
<path d="M2017.17,23.21 c 1.22,0.22 2.31,0.46 3.71,0.3 8.38,-0.91 21.78,-2.99 31.55,-3.43 1.44,-0.06 2.17,0.03 3.24,0.39" style="fill:none;stroke:#999;stroke-width:3" />
<path d="M2041.27,25.86 c 0.24,0.36 0.49,0.65 0.12,1.29 -3.27,5.72 -8.13,10.5 -15.16,13.5" style="fill:none;stroke:#999;stroke-width:3" />
<path d="M2027.53,27.3 c 5.12,1.88 12.5,7.99 15.17,12.47" style="fill:none;stroke:#999;stroke-width:3" />
<path d="M2020.65,28.83 c 0.32,0.17 0.98,1.24 1.05,1.57 0.46,2.41 -0.41,14.38 -0.44,15.16 -0.03,0.78 0.69,1.21 1.31,1.12 9.27,-1.4 23.28,-2.66 26.56,-2.83" style="fill:none;stroke:#999;stroke-width:3" />
<path d="M2049.91,25.63 c 0.32,0.17 0.98,1.24 1.05,1.57 0.06,0.33 -0.62,12.02 -0.9,18.52" style="fill:none;stroke:#999;stroke-width:3" />
<path d="M2018.15,54.52 c 0.57,0.76 0.76,1.96 0.76,3.35 0,7.88 -0.17,26.35 -0.17,28.63" style="fill:none;stroke:#999;stroke-width:3" />
<path d="M2019.08,56.98 c 5.07,-0.64 29.81,-4.09 30.83,-4.09 1.47,0 2.4,0.48 2.4,1.91 0,3.02 0.19,19.96 0.2,25.31 0.01,7.44 -4.64,3.14 -6,1.63" style="fill:none;stroke:#999;stroke-width:3" />
<path d="M2034.72,47.79 c 0.22,0.42 0.28,2.07 0.07,2.59 -2.083107,7.5 -3.347874,11.513832 -5.03813,16.954299" style="fill:none;stroke:black;stroke-width:3" />
<circle cx="2034.72" cy="47.79" r="5" stroke-width="0" fill="#FF2A00" opacity="0.7" />
<path d="M2102.11,12 c 0.03,0.34 0.1,0.97 -0.05,1.35 -1.88,4.74 -4.66,9.08 -9.56,12.9" style="fill:none;stroke:#999;stroke-width:3" />
<path d="M2085.33,28.12 c 0.23,0.54 0.24,0.91 0.37,1.57 1.04,5.5 2.33,15.74 2.95,25.88" style="fill:none;stroke:#999;stroke-width:3" />
<path d="M2086.4300000000003,29.45 C2094.73,28.89,2109.0,25.96,2115.2,25.42 46.48,25.22 47.41,27 47.16,29.29 46.59,34.67 45.5,46 44.14,53.63" style="fill:none;stroke:#999;stroke-width:3" />
<path d="M2100.2,28.9 c 0.69,0.69 1.25,1.64 1.26,2.75 0.03,5.51 0.12,16.88 0.12,20" style="fill:none;stroke:#999;stroke-width:3" />
<path d="M2087.91,41.07 C2090.61,40.8,2107.25,38.5,2116.64,37.7" style="fill:none;stroke:#999;stroke-width:3" />
<path d="M2089.07,54.14 C2099.25,52.75,2105.0,52.25,2114.71,51.26" style="fill:none;stroke:#999;stroke-width:3" />
<path d="M2094.62,58.75 c 0.17,0.67 0.47,1.96 0.25,3.05 C2093.0,71,2090.0,83.25,2082.0,92.5" style="fill:none;stroke:#999;stroke-width:3" />
<path d="M2104.49,54.87 c 0.74,1.19 1.33,2.59 1.38,4.43 0.2,8.19 -0.42,18.64 -0.42,24.2 0,11 1.56,13.03 31.97,13.03 27.34,0 28.84,-1.53 28.84,-10.62" style="fill:none;stroke:#999;stroke-width:3" />
<path d="M2116.44,60.72 c 0.21,0.35 0.06,1.93 -0.07,2.38 -1.55,5.71 -3.12,10.39 -6.06,16.54 -0.67,1.41 -0.87,1.7 0.42,1.27 4.53,-1.51 6.66,-2.82 11.05,-4.41" style="fill:none;stroke:#999;stroke-width:3" />
<path d="M2119.85,71.54 c 1.01,1.37 3.24,6.8 3.49,8.93" style="fill:none;stroke:#999;stroke-width:3" />
<path d="M2142.56,11.5 c 0.56,0.27 1.48,1.33 1.48,1.87 0,2 -0.18,6.23 -0.07,7.92" style="fill:none;stroke:#999;stroke-width:3" />
<path d="M2126.17,23.21 c 1.22,0.22 2.31,0.46 3.71,0.3 8.38,-0.91 21.78,-2.99 31.55,-3.43 1.44,-0.06 2.17,0.03 3.24,0.39" style="fill:none;stroke:#999;stroke-width:3" />
<path d="M2150.27,25.86 c 0.24,0.36 0.49,0.65 0.12,1.29 -3.27,5.72 -8.13,10.5 -15.16,13.5" style="fill:none;stroke:#999;stroke-width:3" />
<path d="M2136.5299999999997,27.3 c 5.12,1.88 12.5,7.99 15.17,12.47" style="fill:none;stroke:#999;stroke-width:3" />
<path d="M2129.65,28.83 c 0.32,0.17 0.98,1.24 1.05,1.57 0.46,2.41 -0.41,14.38 -0.44,15.16 -0.03,0.78 0.69,1.21 1.31,1.12 9.27,-1.4 23.28,-2.66 26.56,-2.83" style="fill:none;stroke:#999;stroke-width:3" />
<path d="M2158.91,25.63 c 0.32,0.17 0.98,1.24 1.05,1.57 0.06,0.33 -0.62,12.02 -0.9,18.52" style="fill:none;stroke:#999;stroke-width:3" />
<path d="M2127.15,54.52 c 0.57,0.76 0.76,1.96 0.76,3.35 0,7.88 -0.17,26.35 -0.17,28.63" style="fill:none;stroke:#999;stroke-width:3" />
<path d="M2128.08,56.98 c 5.07,-0.64 29.81,-4.09 30.83,-4.09 1.47,0 2.4,0.48 2.4,1.91 0,3.02 0.19,19.96 0.2,25.31 0.01,7.44 -4.64,3.14 -6,1.63" style="fill:none;stroke:#999;stroke-width:3" />
<path d="M2143.7200000000003,47.79 c 0.22,0.42 0.28,2.07 0.07,2.59 -2.083107,7.5 -3.347874,11.513832 -5.03813,16.954299" style="fill:none;stroke:#999;stroke-width:3" />
<path d="M2135.803107,68.29397 c 3.39,-1.12 9.84,-2.13 14.56,-4.01" style="fill:none;stroke:black;stroke-width:3" />
<circle cx="2135.803107" cy="68.29397" r="5" stroke-width="0" fill="#FF2A00" opacity="0.7" />
<path d="M2211.11,12 c 0.03,0.34 0.1,0.97 -0.05,1.35 -1.88,4.74 -4.66,9.08 -9.56,12.9" style="fill:none;stroke:#999;stroke-width:3" />
<path d="M2194.33,28.12 c 0.23,0.54 0.24,0.91 0.37,1.57 1.04,5.5 2.33,15.74 2.95,25.88" style="fill:none;stroke:#999;stroke-width:3" />
<path d="M2195.4300000000003,29.45 C2203.73,28.89,2218.0,25.96,2224.2,25.42 46.48,25.22 47.41,27 47.16,29.29 46.59,34.67 45.5,46 44.14,53.63" style="fill:none;stroke:#999;stroke-width:3" />
<path d="M2209.2,28.9 c 0.69,0.69 1.25,1.64 1.26,2.75 0.03,5.51 0.12,16.88 0.12,20" style="fill:none;stroke:#999;stroke-width:3" />
<path d="M2196.91,41.07 C2199.61,40.8,2216.25,38.5,2225.64,37.7" style="fill:none;stroke:#999;stroke-width:3" />
<path d="M2198.07,54.14 C2208.25,52.75,2214.0,52.25,2223.71,51.26" style="fill:none;stroke:#999;stroke-width:3" />
<path d="M2203.62,58.75 c 0.17,0.67 0.47,1.96 0.25,3.05 C2202.0,71,2199.0,83.25,2191.0,92.5" style="fill:none;stroke:#999;stroke-width:3" />
<path d="M2213.49,54.87 c 0.74,1.19 1.33,2.59 1.38,4.43 0.2,8.19 -0.42,18.64 -0.42,24.2 0,11 1.56,13.03 31.97,13.03 27.34,0 28.84,-1.53 28.84,-10.62" style="fill:none;stroke:#999;stroke-width:3" />
<path d="M2225.44,60.72 c 0.21,0.35 0.06,1.93 -0.07,2.38 -1.55,5.71 -3.12,10.39 -6.06,16.54 -0.67,1.41 -0.87,1.7 0.42,1.27 4.53,-1.51 6.66,-2.82 11.05,-4.41" style="fill:none;stroke:#999;stroke-width:3" />
<path d="M2228.85,71.54 c 1.01,1.37 3.24,6.8 3.49,8.93" style="fill:none;stroke:#999;stroke-width:3" />
<path d="M2251.56,11.5 c 0.56,0.27 1.48,1.33 1.48,1.87 0,2 -0.18,6.23 -0.07,7.92" style="fill:none;stroke:#999;stroke-width:3" />
<path d="M2235.17,23.21 c 1.22,0.22 2.31,0.46 3.71,0.3 8.38,-0.91 21.78,-2.99 31.55,-3.43 1.44,-0.06 2.17,0.03 3.24,0.39" style="fill:none;stroke:#999;stroke-width:3" />
<path d="M2259.27,25.86 c 0.24,0.36 0.49,0.65 0.12,1.29 -3.27,5.72 -8.13,10.5 -15.16,13.5" style="fill:none;stroke:#999;stroke-width:3" />
<path d="M2245.5299999999997,27.3 c 5.12,1.88 12.5,7.99 15.17,12.47" style="fill:none;stroke:#999;stroke-width:3" />
<path d="M2238.65,28.83 c 0.32,0.17 0.98,1.24 1.05,1.57 0.46,2.41 -0.41,14.38 -0.44,15.16 -0.03,0.78 0.69,1.21 1.31,1.12 9.27,-1.4 23.28,-2.66 26.56,-2.83" style="fill:none;stroke:#999;stroke-width:3" />
<path d="M2267.91,25.63 c 0.32,0.17 0.98,1.24 1.05,1.57 0.06,0.33 -0.62,12.02 -0.9,18.52" style="fill:none;stroke:#999;stroke-width:3" />
<path d="M2236.15,54.52 c 0.57,0.76 0.76,1.96 0.76,3.35 0,7.88 -0.17,26.35 -0.17,28.63" style="fill:none;stroke:#999;stroke-width:3" />
<path d="M2237.08,56.98 c 5.07,-0.64 29.81,-4.09 30.83,-4.09 1.47,0 2.4,0.48 2.4,1.91 0,3.02 0.19,19.96 0.2,25.31 0.01,7.44 -4.64,3.14 -6,1.63" style="fill:none;stroke:#999;stroke-width:3" />
<path d="M2252.7200000000003,47.79 c 0.22,0.42 0.28,2.07 0.07,2.59 -2.083107,7.5 -3.347874,11.513832 -5.03813,16.954299" style="fill:none;stroke:#999;stroke-width:3" />
<path d="M2244.803107,68.29397 c 3.39,-1.12 9.84,-2.13 14.56,-4.01" style="fill:none;stroke:#999;stroke-width:3" />
<path d="M2257.0,59.08 c 2.14,2.11 5.53,8.66 6.06,11.94" style="fill:none;stroke:black;stroke-width:3" />
<circle cx="2257.0" cy="59.08" r="5" stroke-width="0" fill="#FF2A00" opacity="0.7" />
</svg>